<?xml version="1.0" standalone="no"?>
<!DOCTYPE svg PUBLIC "-//W3C//DTD SVG 20010904//EN"
 "http://www.w3.org/TR/2001/REC-SVG-20010904/DTD/svg10.dtd">
<svg version="1.0" xmlns="http://www.w3.org/2000/svg"
 width="1280.000000pt" height="1279.000000pt" viewBox="0 0 1280.000000 1279.000000"
 preserveAspectRatio="xMidYMid meet">

<g transform="translate(0.000000,1279.000000) scale(0.100000,-0.100000)"
fill="#000000" stroke="none">
<path d="M7964 12407 c-13 -10 -24 -25 -24 -33 0 -8 -4 -14 -10 -14 -5 0 -10
-7 -10 -15 0 -18 5 -18 31 -5 15 8 19 7 19 -4 0 -10 11 -14 33 -14 52 0 55 -1
60 -24 3 -22 4 -21 16 7 14 34 7 87 -14 105 -23 19 -75 18 -101 -3z"/>
<path d="M8005 12240 c-28 -28 -32 -29 -67 -18 -30 9 -44 8 -65 -2 -16 -7 -32
-13 -37 -11 -5 1 -17 -6 -27 -15 -17 -15 -17 -14 -13 8 4 22 4 22 -8 -2 -7
-14 -18 -29 -25 -33 -7 -4 -13 -13 -13 -18 0 -6 -11 -25 -25 -43 -14 -18 -25
-40 -25 -49 0 -9 -5 -19 -10 -22 -19 -11 -80 -115 -80 -135 0 -10 -6 -23 -14
-27 -20 -12 -86 -108 -86 -126 0 -9 5 -19 10 -22 14 -9 3 -25 -13 -20 -16 6
-28 -3 -56 -43 -13 -18 -21 -39 -18 -46 3 -8 -3 -16 -15 -19 -11 -3 -17 -10
-14 -15 8 -14 -17 -59 -30 -55 -13 4 -56 -76 -48 -89 3 -4 1 -8 -4 -8 -5 0
-12 -9 -15 -20 -3 -11 -11 -20 -19 -20 -7 0 -19 -15 -27 -32 -8 -18 -17 -35
-21 -38 -14 -10 -80 -138 -80 -154 0 -9 -4 -15 -9 -11 -6 3 -15 -4 -21 -15 -6
-11 -8 -20 -5 -20 3 0 -3 -8 -14 -19 -21 -21 -91 -137 -91 -151 0 -4 6 -10 13
-13 6 -2 8 -8 4 -13 -4 -5 -12 -2 -18 6 -8 13 -10 13 -19 0 -6 -8 -9 -25 -7
-37 3 -16 -2 -24 -15 -29 -13 -4 -17 -11 -13 -24 4 -13 0 -20 -14 -25 -12 -3
-38 -39 -63 -83 -23 -42 -48 -83 -55 -90 -7 -7 -13 -20 -13 -29 0 -8 -14 -28
-31 -44 -21 -19 -30 -36 -26 -48 3 -13 -1 -21 -15 -24 -11 -3 -22 -15 -25 -26
-3 -12 -9 -21 -14 -21 -5 0 -9 -6 -9 -13 0 -8 -9 -22 -19 -31 -11 -10 -22 -30
-26 -44 -3 -15 -14 -36 -24 -47 -26 -30 -99 -155 -112 -193 -6 -17 -14 -32
-18 -32 -4 0 -16 -16 -27 -35 -10 -19 -22 -35 -25 -35 -4 0 -14 -17 -23 -37
-9 -21 -28 -53 -42 -72 -13 -19 -24 -42 -23 -50 4 -41 -2 -60 -15 -55 -12 5
-76 -68 -76 -88 0 -4 -14 -30 -30 -59 -19 -31 -28 -58 -25 -70 5 -14 1 -19
-14 -19 -17 0 -19 -5 -16 -46 3 -41 2 -44 -10 -28 -7 10 -11 22 -9 26 3 5 1 8
-4 8 -5 0 -16 -15 -23 -32 -7 -18 -19 -39 -26 -46 -7 -7 -13 -20 -13 -28 0 -8
-4 -14 -8 -14 -5 0 -16 -15 -25 -32 -10 -18 -27 -49 -39 -68 -12 -19 -43 -73
-68 -120 -26 -47 -62 -111 -79 -142 -18 -32 -30 -58 -27 -58 4 0 -2 -8 -11
-18 -10 -9 -31 -44 -48 -77 -16 -33 -33 -62 -36 -65 -6 -5 -89 -159 -122 -225
-11 -22 -24 -49 -30 -60 -6 -11 -28 -51 -48 -90 -20 -38 -59 -110 -86 -160
-28 -49 -90 -164 -140 -255 -114 -211 -132 -240 -134 -217 -1 9 -2 23 -3 30
-1 6 -6 16 -13 20 -9 6 -8 16 7 42 23 41 16 46 -12 10 -15 -19 -23 -23 -32
-15 -7 5 -16 7 -19 3 -4 -3 -7 -1 -7 5 0 16 18 24 22 10 2 -6 10 -8 17 -4 8 5
9 12 2 19 -6 8 -3 25 10 51 10 21 20 55 21 75 2 20 7 39 13 43 20 14 -2 17
-29 3 -26 -14 -27 -13 -21 5 5 17 2 20 -20 18 -23 -2 -26 -6 -21 -30 5 -24 2
-28 -17 -28 -27 0 -64 -67 -66 -119 -1 -22 -11 -43 -26 -59 -14 -14 -25 -33
-25 -43 0 -11 -4 -19 -8 -19 -5 0 -14 -22 -21 -50 -8 -31 -18 -50 -27 -50 -16
0 -33 -36 -43 -90 -7 -41 -35 -53 -44 -19 -4 13 -1 29 5 37 14 17 21 72 9 72
-15 0 -22 -17 -23 -50 -1 -16 -4 -28 -7 -25 -4 2 -8 -4 -9 -13 -3 -29 -9 -56
-17 -75 -11 -26 2 -33 23 -13 19 16 52 13 52 -5 0 -4 -8 -5 -17 -2 -13 5 -15
2 -10 -11 4 -9 3 -15 -2 -12 -5 3 -11 0 -13 -7 -7 -17 2 -38 13 -32 5 4 6 -1
3 -9 -3 -9 -12 -16 -19 -16 -7 0 -15 -7 -18 -14 -4 -10 -1 -13 9 -9 7 3 14 0
14 -6 0 -6 -7 -11 -15 -11 -10 0 -15 -11 -15 -35 0 -19 -4 -35 -10 -35 -5 0
-10 -7 -10 -15 0 -8 -5 -15 -11 -15 -5 0 -7 5 -4 10 3 6 1 10 -6 10 -8 0 -7 6
4 18 9 10 14 27 11 39 -3 11 2 35 11 53 10 18 14 42 11 56 -10 39 -31 18 -33
-33 -1 -26 -6 -56 -11 -67 -6 -12 -17 -37 -27 -56 -16 -34 -16 -34 -10 -5 12
54 -12 13 -28 -47 -11 -48 -12 -58 0 -58 7 0 13 -9 13 -20 0 -13 -5 -18 -15
-14 -17 7 -21 -11 -5 -21 15 -9 12 -45 -5 -51 -17 -7 -21 -64 -5 -64 6 0 10
-9 10 -19 0 -11 6 -26 14 -33 7 -8 14 -26 14 -40 -1 -15 3 -52 7 -83 6 -48 10
-58 32 -66 20 -7 24 -15 21 -34 -3 -14 -1 -25 3 -25 5 0 9 7 9 15 0 21 22 65
33 65 5 0 7 -18 3 -45 -5 -29 -4 -45 3 -45 6 0 11 8 11 18 0 12 4 11 13 -8 8
-14 19 -24 25 -23 6 2 9 -4 6 -12 -4 -9 0 -15 10 -15 8 0 20 -9 26 -20 14 -27
39 -25 80 5 19 14 42 25 52 25 11 0 32 7 48 15 17 9 30 13 30 10 0 -6 58 22
79 38 22 18 42 17 64 -4 21 -19 31 -23 54 -20 7 1 9 -7 6 -19 -4 -14 0 -20 12
-20 14 0 15 -3 5 -15 -12 -14 -7 -20 14 -16 5 1 13 -4 17 -11 6 -9 14 -7 32
11 15 13 27 18 31 13 16 -27 109 53 122 104 3 13 10 24 15 24 5 0 9 11 9 24 0
13 7 29 15 36 21 17 75 114 75 134 0 9 4 16 9 16 7 0 34 51 37 70 0 3 34 75
76 160 94 194 130 272 153 333 10 26 22 50 26 53 5 3 9 13 9 22 0 9 7 30 15
46 8 15 15 36 15 46 0 10 7 20 15 24 8 3 15 13 15 22 0 9 8 33 19 53 10 20 26
52 35 71 9 19 20 42 25 50 6 8 20 38 32 65 12 28 25 57 30 65 5 8 14 26 20 40
5 14 19 44 30 68 10 23 28 61 38 85 11 23 23 54 27 70 3 15 10 30 15 32 4 3 6
12 2 20 -3 8 0 15 6 15 6 0 22 26 37 58 27 59 65 142 127 272 19 41 38 86 42
100 4 14 13 32 20 40 18 22 54 96 58 119 2 10 8 25 14 33 6 7 30 63 54 123 24
61 46 112 50 115 6 5 21 40 67 155 9 22 34 81 57 130 41 88 57 123 88 195 8
19 29 66 46 104 17 37 31 76 31 86 0 9 9 27 20 40 11 13 20 29 20 36 0 7 14
39 30 71 17 31 30 68 30 81 0 12 7 25 15 28 8 4 15 11 15 16 0 15 150 319 174
353 11 16 26 39 32 50 21 39 39 70 45 75 3 3 15 21 27 42 19 31 34 43 62 53 3
1 12 4 20 7 39 15 53 18 63 11 6 -4 54 -9 107 -11 107 -4 129 -6 150 -15 8 -3
40 -8 71 -10 31 -2 61 -7 67 -11 7 -4 24 -9 39 -11 51 -9 168 -42 206 -59 21
-9 59 -21 85 -26 25 -4 48 -13 50 -19 2 -6 10 -11 17 -11 13 0 66 -20 107 -41
10 -5 23 -9 30 -9 6 0 19 -6 27 -14 9 -8 25 -16 36 -18 11 -1 26 -11 33 -20 7
-10 20 -18 29 -18 8 0 36 -15 62 -34 25 -18 73 -48 106 -65 95 -51 129 -72
140 -85 6 -7 17 -15 25 -19 8 -4 33 -21 55 -38 22 -16 57 -41 78 -54 20 -14
37 -30 37 -35 0 -6 5 -10 11 -10 6 0 25 -16 42 -35 17 -19 37 -35 44 -35 7 0
13 -7 13 -15 0 -8 6 -15 13 -15 20 -1 75 -53 86 -83 6 -16 15 -25 21 -22 5 3
10 2 10 -2 0 -5 11 -20 25 -35 17 -18 31 -25 43 -21 15 6 15 5 3 -11 -13 -15
-12 -18 7 -23 12 -3 22 -11 22 -18 0 -7 16 -25 35 -39 19 -15 35 -33 35 -40 0
-8 20 -35 44 -61 25 -25 51 -61 60 -79 8 -18 24 -40 36 -51 11 -10 20 -22 20
-28 0 -5 11 -18 25 -29 14 -11 25 -28 25 -39 0 -11 4 -18 9 -15 12 8 27 -13
35 -46 4 -19 13 -28 25 -28 13 0 22 -10 26 -30 4 -17 18 -38 31 -47 14 -9 23
-22 20 -29 -8 -22 88 -154 112 -154 12 0 25 -47 17 -61 -4 -5 1 -12 9 -15 9
-3 16 -12 16 -18 0 -18 45 -58 54 -49 5 5 5 -7 1 -24 -4 -21 -3 -33 4 -33 6 0
11 -7 11 -15 0 -8 5 -15 10 -15 6 0 10 -8 10 -19 0 -10 7 -24 15 -31 8 -7 15
-17 15 -24 0 -17 52 -116 62 -116 4 0 8 -13 8 -29 0 -18 10 -38 25 -52 13 -13
25 -34 25 -45 0 -12 7 -25 16 -28 9 -3 14 -12 11 -20 -3 -8 10 -58 30 -112 19
-55 45 -127 57 -160 12 -34 27 -68 33 -76 7 -8 17 -36 23 -63 6 -27 15 -54 20
-60 4 -5 13 -36 19 -68 12 -69 17 -77 39 -77 14 0 15 -2 3 -9 -13 -8 -13 -14
-2 -38 8 -15 17 -44 22 -63 4 -19 14 -60 22 -90 27 -104 77 -418 82 -519 3
-43 10 -78 17 -82 8 -5 9 -11 1 -21 -15 -20 -17 -266 -2 -284 10 -13 10 -17
-1 -24 -14 -9 -18 -79 -5 -100 4 -7 2 -15 -5 -20 -7 -4 -13 -44 -16 -106 -7
-139 -10 -176 -19 -204 -5 -14 -9 -55 -9 -91 -1 -40 -6 -72 -15 -83 -9 -10
-12 -30 -8 -56 3 -21 1 -40 -5 -42 -5 -2 -10 -27 -10 -56 -1 -28 -5 -52 -10
-52 -4 0 -5 -20 -2 -44 6 -38 4 -45 -16 -56 -14 -8 -20 -18 -17 -30 3 -11 0
-22 -7 -25 -8 -3 -8 -7 2 -11 18 -8 15 -27 -4 -20 -12 4 -15 2 -10 -9 3 -8 2
-15 -3 -15 -5 0 -11 -17 -15 -38 -3 -21 -13 -53 -22 -71 -9 -17 -16 -48 -16
-67 0 -18 -4 -34 -9 -34 -5 0 -9 -13 -9 -30 0 -16 -4 -30 -9 -30 -12 0 -21
-36 -11 -47 4 -4 11 -19 15 -33 4 -16 3 -20 -3 -12 -19 27 -40 1 -47 -58 -4
-33 -13 -64 -21 -71 -8 -6 -14 -28 -14 -49 0 -21 -7 -43 -15 -50 -8 -7 -15
-21 -15 -31 0 -9 -6 -24 -13 -31 -8 -7 -12 -19 -9 -27 3 -8 0 -11 -5 -8 -11 7
-43 -54 -43 -81 0 -10 -11 -33 -24 -51 -13 -17 -27 -52 -30 -76 -5 -31 -13
-46 -27 -50 -12 -4 -19 -15 -19 -31 0 -13 -4 -24 -9 -24 -5 0 -11 -8 -15 -17
-3 -10 -17 -36 -30 -58 -14 -21 -22 -43 -20 -47 3 -5 -2 -15 -11 -24 -9 -10
-13 -24 -9 -36 4 -14 0 -21 -14 -25 -18 -4 -38 -33 -100 -146 -22 -40 -84
-139 -165 -261 -41 -63 -45 -68 -81 -110 -14 -15 -28 -37 -32 -48 -3 -10 -16
-23 -29 -28 -13 -5 -35 -32 -51 -59 -15 -28 -32 -51 -38 -51 -6 0 -22 -17 -35
-39 -13 -21 -36 -46 -51 -55 -15 -8 -35 -32 -44 -51 -10 -20 -21 -33 -26 -30
-5 3 -32 -17 -60 -45 -28 -27 -55 -50 -59 -50 -5 0 -11 -9 -14 -20 -3 -12 -14
-20 -26 -20 -14 0 -23 -8 -27 -25 -3 -14 -12 -25 -20 -25 -8 0 -14 -7 -14 -15
0 -18 -20 -20 -21 -2 0 6 -4 2 -10 -11 -5 -15 -13 -21 -21 -16 -7 4 -10 3 -5
-1 9 -10 -21 -45 -40 -45 -7 0 -13 -4 -13 -9 0 -5 -8 -8 -17 -7 -11 0 -18 -6
-18 -17 0 -10 -9 -23 -20 -29 -11 -6 -24 -18 -29 -26 -6 -11 -10 -11 -16 -2
-6 9 -14 8 -37 -3 -36 -19 -57 -43 -49 -56 4 -5 1 -13 -5 -17 -6 -3 -15 -1
-19 6 -11 18 -72 -9 -67 -30 4 -16 -17 -43 -26 -33 -3 3 -3 12 0 20 5 13 3 13
-15 4 -12 -7 -22 -18 -22 -26 0 -8 -9 -19 -19 -25 -26 -13 -31 -13 -31 5 0 19
-14 19 -29 1 -8 -10 -9 -16 -1 -21 15 -9 2 -25 -21 -25 -10 0 -19 7 -19 15 0
19 4 20 -78 -15 -39 -17 -79 -30 -89 -30 -10 0 -27 -7 -37 -15 -11 -8 -30 -15
-42 -15 -13 0 -30 -7 -39 -16 -9 -9 -19 -14 -22 -11 -3 4 -18 0 -34 -8 -15 -8
-37 -15 -49 -15 -11 0 -23 -7 -26 -15 -4 -8 -17 -15 -29 -15 -24 0 -87 -29
-93 -42 -2 -5 -12 -8 -23 -8 -10 0 -28 -9 -39 -20 -11 -11 -25 -20 -32 -20 -7
0 -24 -11 -38 -25 -16 -15 -40 -26 -62 -27 -20 -2 -34 -7 -30 -12 3 -5 -2 -7
-11 -3 -10 3 -17 2 -17 -3 0 -6 -7 -10 -15 -10 -8 0 -15 3 -15 8 0 4 -16 8
-36 9 -47 2 -52 8 -26 36 12 13 20 26 17 29 -3 3 1 8 10 12 11 4 14 2 9 -7 -5
-7 0 -5 11 3 16 13 16 15 2 18 -21 4 -22 21 -2 28 8 4 15 10 15 15 0 5 -7 9
-15 9 -8 0 -15 8 -15 18 0 12 7 18 20 18 27 -1 56 45 45 70 -5 11 -7 22 -7 27
1 4 -3 7 -10 7 -6 0 -4 8 6 19 10 11 15 25 11 30 -3 6 -1 11 6 11 14 0 59 46
59 61 0 5 -5 9 -11 9 -13 0 15 48 39 67 14 12 14 13 -4 13 -11 0 -24 -4 -29
-8 -6 -5 -30 -15 -55 -22 -25 -8 -48 -18 -51 -23 -4 -5 -22 -10 -40 -12 -50
-4 -203 -47 -211 -59 -4 -5 -24 -10 -45 -9 -48 1 -55 -3 -41 -27 7 -11 9 -22
6 -26 -11 -10 -28 6 -28 27 0 18 -4 20 -32 14 -18 -4 -37 -11 -43 -15 -5 -4
-32 -8 -60 -9 -42 -1 -54 -6 -77 -32 -14 -17 -24 -38 -21 -46 3 -8 -2 -16 -13
-19 -11 -3 -32 -24 -48 -47 -53 -76 -208 -280 -286 -377 -140 -174 -170 -215
-160 -218 6 -2 10 -8 10 -13 0 -4 -8 -6 -17 -2 -17 6 -17 5 0 -14 9 -11 17
-25 17 -31 0 -7 5 -12 10 -12 6 0 10 -4 10 -10 0 -16 -22 -12 -36 8 -12 16
-13 15 -14 -5 0 -12 8 -27 18 -32 14 -9 14 -12 3 -20 -10 -7 -6 -14 18 -32 34
-25 40 -39 15 -39 -25 0 -40 -22 -40 -59 1 -26 -3 -35 -19 -37 -33 -5 -52 -42
-52 -102 0 -49 3 -59 28 -80 16 -13 27 -27 24 -32 -3 -4 2 -10 10 -14 9 -3 12
-12 8 -22 -4 -12 -3 -15 6 -10 8 5 14 1 18 -13 3 -12 11 -21 19 -21 8 0 11 7
8 18 -5 15 -4 15 8 2 10 -11 26 -14 66 -10 30 3 56 2 59 -3 3 -5 16 -6 29 -3
20 5 23 3 21 -16 -1 -17 4 -24 20 -26 17 -3 21 0 17 12 -7 18 21 23 31 6 3 -5
11 -7 18 -5 7 3 19 0 27 -5 13 -9 13 -11 0 -19 -12 -9 -12 -11 3 -17 9 -3 17
-12 17 -20 0 -8 -6 -11 -16 -7 -12 4 -15 2 -12 -8 5 -16 55 -22 63 -8 4 5 0 9
-8 9 -10 0 -13 7 -10 20 6 22 23 28 23 8 0 -9 3 -9 12 0 20 20 31 14 24 -13
-6 -25 -5 -26 31 -23 31 2 38 0 37 -14 -1 -10 2 -15 7 -12 5 3 9 1 9 -5 0 -5
-6 -12 -12 -15 -7 -4 -3 -4 10 -2 23 4 62 -23 62 -44 0 -5 10 -14 21 -21 15
-8 19 -8 15 0 -4 6 -2 11 3 11 6 0 11 -4 11 -10 0 -13 47 -13 55 0 10 16 81
12 96 -6 9 -11 22 -14 41 -10 15 3 28 2 28 -3 0 -13 151 -23 166 -10 7 6 19 7
26 3 7 -5 27 -10 43 -11 17 -1 46 -4 65 -7 19 -2 42 0 51 5 9 4 38 10 65 13
27 2 50 9 52 15 2 7 8 6 17 -2 20 -19 8 -27 -43 -28 -43 -1 -113 -16 -84 -18
6 -1 12 -7 12 -15 0 -8 6 -16 14 -19 17 -7 59 3 67 15 5 8 38 13 102 17 9 1
17 7 17 15 0 8 14 16 33 19 114 19 181 35 185 45 3 9 9 9 23 1 15 -7 24 -7 34
1 8 7 29 12 46 13 29 2 57 27 30 27 -6 0 -11 5 -11 10 0 6 7 10 16 10 8 0 13
-4 9 -9 -9 -15 8 -20 34 -10 15 6 21 14 17 24 -3 8 -1 15 4 15 5 0 12 -9 15
-20 4 -11 11 -18 16 -14 6 3 8 13 4 22 -3 8 0 19 7 24 20 12 34 10 20 -4 -19
-19 -14 -28 13 -28 38 0 84 37 77 63 -4 16 -2 19 11 14 9 -3 30 4 49 18 18 14
43 29 56 34 12 6 22 18 22 27 0 11 6 15 20 11 10 -3 24 1 31 9 6 8 16 14 21
14 6 0 19 11 30 25 11 14 25 25 32 25 7 0 21 9 31 20 10 12 25 18 32 15 17 -6
111 67 106 82 -3 7 4 9 17 6 15 -4 19 -2 14 10 -4 12 -1 14 14 10 14 -3 22 1
27 16 3 12 11 21 18 21 19 0 86 52 93 72 3 11 12 17 19 14 7 -2 34 18 60 45
26 27 56 49 67 49 15 0 19 6 16 28 -2 23 0 27 19 25 15 -2 28 7 40 27 20 34
43 40 43 10 0 -26 6 -25 54 7 28 20 35 29 23 31 -27 5 -22 60 6 71 12 5 29 20
36 35 8 14 30 36 50 49 65 44 111 96 123 142 8 29 16 41 25 38 7 -3 13 2 13
11 0 9 7 16 16 16 11 0 15 -6 11 -20 -3 -11 -1 -20 4 -20 5 0 9 4 9 10 0 9 56
65 126 126 28 25 33 35 31 69 -1 31 2 41 16 43 9 2 17 8 17 13 0 5 8 9 18 8
10 0 12 -3 5 -6 -7 -2 -13 -11 -13 -18 0 -8 -8 -18 -17 -24 -10 -5 -15 -12
-12 -15 8 -9 79 65 79 82 0 8 8 20 17 27 9 7 17 18 19 26 1 8 5 22 9 31 4 11
3 18 -4 18 -6 0 -11 -5 -11 -12 0 -9 -3 -9 -12 0 -9 9 -9 15 0 24 7 7 12 20
12 30 0 10 5 18 10 18 6 0 10 -7 10 -15 0 -9 7 -18 16 -22 12 -4 14 -14 10
-38 -7 -38 3 -52 20 -27 14 20 16 84 2 76 -17 -11 -7 57 12 76 11 11 17 26 14
33 -6 17 21 41 36 32 6 -3 10 3 10 15 0 16 4 20 16 16 9 -3 18 -6 21 -6 3 0
-4 -8 -15 -18 -27 -23 -57 -72 -44 -72 6 0 14 5 17 10 3 6 13 10 21 10 8 0 13
-4 10 -8 -2 -4 -1 -14 5 -22 7 -12 9 -11 9 6 0 11 -5 25 -11 31 -16 16 -1 36
23 30 16 -5 19 -1 16 21 -2 20 1 26 12 25 20 -4 21 48 3 55 -7 2 -13 -3 -13
-12 0 -8 -9 -20 -20 -26 -31 -16 -25 6 10 42 17 16 30 40 30 54 0 13 5 24 10
24 6 0 10 -7 10 -17 0 -14 3 -14 23 3 22 19 22 19 5 -2 -23 -26 -24 -94 -3
-94 10 0 15 10 15 31 0 32 14 64 37 88 12 11 12 15 1 22 -9 6 -9 9 -1 9 6 0
18 3 27 6 10 4 16 1 16 -9 0 -18 18 -32 28 -22 3 3 0 10 -8 15 -9 6 -10 10 -3
10 6 0 9 9 6 20 -4 16 -2 19 13 14 16 -6 17 -5 7 7 -17 18 -16 29 2 29 8 0 15
-7 15 -16 0 -14 3 -14 15 -4 8 7 15 19 15 26 0 8 5 14 10 14 6 0 10 5 10 12 0
9 -3 9 -12 0 -17 -17 -45 -15 -52 4 -10 25 -7 34 10 34 8 0 12 5 9 10 -3 5 -2
10 4 10 5 0 12 -4 15 -9 13 -20 53 -8 70 20 14 23 14 29 3 29 -9 0 -12 9 -9
30 5 32 19 40 28 15 8 -21 21 -19 29 5 3 11 12 20 18 20 10 0 57 61 57 74 0 2
-7 7 -16 10 -12 5 -15 2 -10 -11 6 -15 4 -15 -14 2 -25 23 -25 37 0 53 11 6
17 18 14 25 -5 15 44 73 54 63 3 -4 2 -10 -3 -14 -16 -11 -16 -38 -1 -51 12
-10 18 -6 35 28 12 22 21 47 21 55 0 8 10 25 23 36 20 20 21 22 5 34 -25 18
-28 70 -4 79 10 4 13 -3 12 -26 0 -18 4 -33 9 -34 10 -3 11 0 14 32 0 8 10 15
20 15 16 0 21 9 26 48 4 26 9 54 11 64 3 9 1 19 -5 22 -5 3 -7 15 -4 26 3 11
9 17 14 14 5 -3 7 -9 4 -14 -3 -4 -2 -15 1 -24 5 -12 10 -13 25 -6 10 6 16 17
13 25 -4 8 1 31 10 50 10 20 15 44 11 54 -3 11 0 21 8 24 10 4 13 15 10 34 -4
25 -3 26 10 11 13 -17 15 -17 33 3 18 20 18 21 -1 35 -16 12 -18 18 -7 34 7
12 8 20 2 20 -5 0 -10 7 -10 15 0 8 6 15 14 15 7 0 16 14 20 30 3 17 14 33 23
37 36 14 64 65 43 78 -6 3 -10 -3 -10 -15 0 -23 -21 -50 -39 -50 -6 0 -11 7
-11 16 0 8 5 12 10 9 6 -3 14 4 19 17 21 57 22 66 5 72 -24 9 -37 -7 -36 -46
0 -20 -2 -27 -7 -19 -12 19 -20 -30 -10 -57 5 -13 4 -22 -1 -22 -6 0 -10 5
-10 10 0 6 -4 10 -10 10 -5 0 -8 -13 -6 -30 3 -24 1 -28 -12 -21 -8 5 -17 26
-19 47 -3 32 0 41 18 49 22 10 26 32 5 27 -6 -1 0 6 13 16 15 12 21 26 18 38
-4 16 -5 16 -6 -3 -1 -25 -15 -30 -27 -11 -4 6 -2 14 4 16 7 2 12 9 12 17 0 7
7 18 15 25 11 9 12 16 5 25 -13 15 -1 28 15 15 9 -7 15 5 24 45 7 30 10 59 7
64 -11 17 8 51 23 42 15 -10 25 -67 14 -85 -4 -6 -6 -21 -5 -32 2 -12 -5 -29
-15 -39 -23 -23 -26 -50 -8 -65 13 -10 15 -8 15 14 0 29 23 60 34 48 4 -3 4 2
0 13 -7 20 -7 20 15 0 l22 -19 -6 29 c-5 23 -4 26 4 15 10 -13 12 -13 21 0 5
8 10 32 10 52 0 20 5 40 12 44 8 5 6 11 -5 19 -14 10 -15 20 -5 76 6 35 12 73
13 84 2 28 33 85 46 85 8 0 7 5 -1 15 -10 12 -15 13 -21 4 -4 -7 -14 -9 -23
-6 -9 4 -19 6 -22 6 -12 -1 -24 26 -18 44 3 9 1 17 -5 17 -6 0 -11 9 -11 21 0
11 4 17 10 14 29 -18 66 79 41 109 -6 7 -3 19 10 35 16 20 20 21 25 7 3 -9 4
-28 1 -41 -2 -14 0 -28 4 -31 5 -3 9 -17 10 -32 l1 -27 8 25 c4 14 11 38 15
53 4 20 10 27 20 23 28 -10 26 15 -4 45 -36 36 -36 36 -14 36 10 0 25 -10 35
-21 17 -21 17 -21 18 6 0 14 -4 28 -9 30 -13 4 -18 68 -6 67 6 0 9 -7 9 -15
-2 -19 12 -18 20 2 11 29 6 53 -13 64 -16 8 -22 6 -29 -7 -9 -14 -12 -15 -24
-2 -11 11 -12 22 -4 49 8 30 10 32 14 13 5 -34 31 -29 29 5 -1 18 2 26 12 24
11 -2 13 6 9 36 -7 46 6 76 22 52 6 -9 10 -10 10 -3 0 6 3 18 6 27 4 10 -2 17
-19 21 -18 5 -26 15 -29 36 -3 17 -1 32 4 35 5 3 4 12 -3 20 -11 14 -10 15 14
18 6 0 13 11 15 24 4 24 17 29 25 10 3 -7 6 7 6 32 l0 45 -28 -31 c-16 -17
-31 -38 -33 -45 -3 -8 -9 -11 -13 -7 -4 4 -4 15 0 25 5 10 7 39 6 65 -2 42 0
47 21 50 15 2 24 11 26 27 3 21 0 23 -22 19 -28 -6 -33 1 -14 20 10 10 10 17
0 33 -7 11 -10 24 -7 29 3 5 1 11 -5 15 -5 3 -10 11 -10 16 0 6 12 2 28 -9 22
-16 29 -17 40 -6 18 19 15 30 -10 31 -12 1 -25 9 -30 17 -5 8 -15 13 -23 10
-8 -4 -15 -1 -15 5 0 15 57 14 64 -1 4 -7 5 -4 2 8 -2 11 3 29 10 39 16 22 19
49 4 40 -5 -3 -9 9 -8 30 1 20 5 38 10 41 17 11 8 44 -12 44 -11 0 -21 -3 -21
-7 -7 -40 -10 -65 -12 -105 -3 -58 -17 -75 -18 -22 -1 21 -3 53 -4 69 -4 39
14 75 36 75 12 0 19 12 25 43 4 23 6 47 4 52 -2 6 -3 18 -4 28 0 9 -4 17 -8
17 -4 0 -8 9 -8 21 0 25 -16 17 -23 -12 -3 -13 2 -28 14 -40 16 -16 16 -19 3
-19 -12 0 -15 -8 -12 -35 2 -19 -1 -35 -7 -35 -9 0 -14 47 -29 280 -3 47 -8
105 -11 130 -7 57 6 80 31 59 16 -13 17 -12 11 11 -4 14 -7 31 -7 39 0 8 -3
11 -7 8 -13 -14 -33 15 -26 41 5 22 3 24 -16 19 -11 -3 -21 -2 -21 3 0 4 12
11 28 16 20 5 23 8 10 11 -27 7 -34 50 -13 73 10 11 15 23 12 27 -4 3 -7 1 -7
-5 0 -7 -4 -12 -10 -12 -5 0 -10 9 -10 19 0 11 5 23 10 26 17 11 11 37 -10 42
-21 6 -27 19 -10 25 6 2 2 19 -9 41 -10 20 -15 40 -10 43 5 3 9 0 9 -7 0 -7 3
-9 6 -6 4 4 -1 19 -11 34 -12 18 -18 43 -16 69 1 23 -2 45 -8 48 -5 3 -12 34
-16 68 -4 34 -11 69 -15 78 -22 45 -36 86 -45 130 -2 12 -10 29 -17 38 -10 11
-10 16 -1 19 13 5 1 62 -23 105 -8 15 -14 30 -12 35 2 10 -20 89 -33 114 -5
11 -13 27 -18 37 -4 9 -16 43 -25 75 -9 31 -21 57 -27 57 -6 0 -9 10 -8 23 1
12 -3 35 -9 50 -7 16 -12 32 -12 36 0 5 -7 14 -15 21 -8 7 -15 23 -15 36 0 13
-5 24 -10 24 -6 0 -15 11 -20 25 -10 27 -24 32 -36 14 -8 -13 -24 7 -24 31 0
11 3 11 12 2 16 -16 28 -15 28 1 0 12 -36 86 -83 169 -15 26 -24 54 -21 62 6
17 -23 66 -40 66 -16 0 -38 39 -30 52 4 6 3 8 -4 4 -13 -8 -71 64 -65 82 9 25
-8 63 -32 72 -15 6 -23 15 -19 23 3 8 -3 20 -13 28 -16 13 -17 12 -5 -3 8 -9
9 -19 4 -22 -13 -8 -22 17 -16 41 3 12 -12 36 -45 73 -28 30 -51 61 -51 67 0
7 -9 18 -20 25 -11 7 -20 17 -20 22 0 17 -51 76 -66 76 -7 0 -14 7 -14 16 0 9
-19 39 -42 68 -67 80 -66 80 -84 66 -18 -16 -31 -5 -15 13 9 11 6 20 -10 41
-11 14 -27 26 -34 26 -8 0 -19 8 -24 18 -9 15 -12 15 -21 2 -7 -11 -10 -6 -10
21 0 33 -5 40 -55 74 -30 21 -55 42 -55 45 0 4 -13 13 -29 20 -20 8 -32 21
-36 41 -4 16 -12 29 -19 29 -7 0 -27 16 -46 35 -19 19 -38 35 -44 35 -5 0 -21
11 -35 24 -39 38 -194 146 -208 146 -7 0 -13 -4 -13 -10 0 -5 -4 -10 -9 -10
-4 0 -6 11 -4 25 4 20 -1 27 -33 42 -42 19 -44 20 -89 57 -44 34 -105 65 -120
60 -6 -3 -19 6 -28 19 -8 13 -42 37 -74 54 -66 34 -101 52 -123 65 -53 30
-166 82 -174 80 -5 -2 -16 4 -25 11 -45 39 -304 147 -318 133 -4 -3 -14 1 -24
10 -10 9 -32 17 -48 19 -17 1 -36 6 -43 12 -7 5 -33 15 -58 22 -25 7 -53 17
-63 23 -12 6 -23 5 -32 -2 -10 -8 -18 -6 -34 11 -12 14 -27 20 -40 16 -12 -3
-22 1 -25 10 -5 12 -9 13 -21 3 -11 -9 -15 -9 -15 -1 0 15 -47 33 -82 33 -15
0 -29 6 -32 15 -5 11 -14 14 -35 10 -16 -3 -40 1 -57 9 -18 10 -30 11 -32 5
-6 -17 -30 -13 -40 5 -8 14 -15 15 -41 6 -27 -10 -33 -9 -38 6 -10 26 -24 32
-74 32 -25 0 -49 4 -55 9 -15 15 -74 24 -74 12 0 -6 -7 -11 -15 -11 -8 0 -12
6 -9 14 4 9 -8 19 -38 28 -44 15 -45 18 -36 72 2 10 15 32 31 48 15 17 27 38
27 48 0 10 7 20 15 24 8 3 15 12 15 19 0 8 7 20 15 27 8 7 15 19 15 27 0 22
32 87 47 96 7 4 13 15 13 23 0 8 8 24 18 35 11 10 25 32 33 47 7 15 21 38 30
52 40 61 90 161 84 170 -3 6 -1 10 4 10 6 0 11 7 11 15 0 8 7 15 16 15 19 0
86 141 73 155 -14 14 -11 63 5 88 22 33 -6 67 -57 69 -40 1 -48 19 -27 59 14
26 10 24 -25 -11z m-811 -1065 c-4 -8 -10 -15 -15 -15 -4 0 -6 7 -3 15 4 8 10
15 15 15 4 0 6 -7 3 -15z m3348 -1657 c-26 -10 -32 -9 -32 6 0 18 32 26 42 11
4 -5 0 -13 -10 -17z m26 -47 c3 -8 -1 -12 -9 -9 -7 2 -15 10 -17 17 -3 8 1 12
9 9 7 -2 15 -10 17 -17z m88 -109 c-4 -3 -12 0 -19 7 -9 9 -9 14 3 21 11 7 16
5 18 -6 2 -9 1 -18 -2 -22z m-706 -92 c0 -8 -9 0 -20 18 -11 18 -20 36 -20 40
1 14 40 -43 40 -58z m765 -40 c3 -5 1 -10 -4 -10 -6 0 -11 5 -11 10 0 6 2 10
4 10 3 0 8 -4 11 -10z m115 -134 c0 -3 -4 -8 -10 -11 -5 -3 -10 -1 -10 4 0 6
5 11 10 11 6 0 10 -2 10 -4z m70 -121 c0 -8 -4 -15 -10 -15 -5 0 -10 7 -10 15
0 8 5 15 10 15 6 0 10 -7 10 -15z m30 -45 c0 -5 -4 -10 -10 -10 -5 0 -10 5
-10 10 0 6 5 10 10 10 6 0 10 -4 10 -10z m-4633 -32 c-3 -8 -6 -5 -6 6 -1 11
2 17 5 13 3 -3 4 -12 1 -19z m-13 -45 c-4 -16 -10 -30 -13 -33 -3 -3 -7 -15
-8 -28 -2 -13 -12 -43 -23 -67 -11 -24 -20 -55 -20 -69 0 -13 -6 -31 -14 -39
-8 -8 -20 -42 -27 -76 -6 -34 -18 -68 -24 -75 -7 -7 -12 -32 -12 -55 1 -25 -4
-46 -12 -51 -8 -4 -11 -12 -8 -16 6 -11 -14 -90 -30 -119 -6 -11 -12 -38 -14
-60 -2 -22 -7 -43 -12 -46 -5 -3 -10 -30 -12 -60 -3 -53 -28 -143 -46 -165 -5
-6 -7 -13 -4 -16 3 -3 -1 -11 -9 -17 -13 -11 -14 -8 -5 21 23 72 37 138 29
138 -5 0 -10 8 -13 18 -2 9 -4 -5 -5 -32 0 -29 -6 -52 -13 -57 -8 -4 -10 -11
-6 -15 4 -4 0 -15 -9 -25 -10 -12 -15 -29 -12 -49 3 -21 0 -30 -9 -30 -10 0
-12 -7 -8 -19 3 -11 1 -22 -5 -26 -12 -7 -34 -55 -32 -67 1 -4 -6 -4 -15 -1
-13 5 -15 2 -9 -12 3 -10 3 -21 -1 -24 -5 -3 -17 -19 -26 -34 -13 -20 -23 -27
-35 -22 -17 7 -33 9 -64 6 -13 -1 -16 -8 -13 -31 2 -19 -1 -29 -8 -27 -7 1
-11 -7 -9 -18 l4 -20 -16 20 c-20 26 -20 46 -1 39 8 -4 15 -1 15 5 0 24 -37 9
-70 -29 -19 -23 -45 -42 -57 -43 -15 -1 -23 -8 -23 -19 0 -10 -7 -21 -15 -24
-8 -4 -12 -10 -9 -15 3 -5 -3 -6 -12 -2 -13 5 -16 3 -11 -9 3 -10 -4 -25 -20
-39 -18 -17 -27 -20 -30 -11 -3 6 -9 10 -14 6 -15 -9 -10 25 7 51 19 29 8 58
-11 31 -11 -14 -13 -15 -19 -1 -3 9 0 15 8 15 20 0 29 30 11 36 -8 4 -12 11
-8 18 4 6 8 31 8 56 1 37 11 58 53 120 29 41 52 81 52 88 0 6 3 12 8 12 4 0
15 12 24 28 9 15 35 53 57 86 23 32 41 60 41 62 0 3 18 29 40 59 22 30 40 58
40 64 0 5 3 11 8 13 9 4 52 65 52 74 0 3 14 23 30 44 17 21 30 42 30 48 0 5 7
15 15 22 8 7 15 18 15 25 0 7 15 29 33 48 17 20 41 53 52 74 11 21 25 43 32
48 6 6 21 29 33 53 12 23 26 45 31 47 5 3 15 20 24 38 8 18 27 46 41 62 14 17
33 43 41 59 12 22 17 26 24 15 7 -12 9 -12 10 1 1 8 1 19 0 24 -2 8 28 46 36
46 2 0 0 -12 -3 -27z m4806 -273 c0 -5 -4 -10 -10 -10 -5 0 -10 5 -10 10 0 6
5 10 10 10 6 0 10 -4 10 -10z m-557 -555 c-3 -9 -8 -14 -10 -11 -3 3 -2 9 2
15 9 16 15 13 8 -4z m-5403 -139 c0 -3 -4 -8 -10 -11 -5 -3 -10 -1 -10 4 0 6
5 11 10 11 6 0 10 -2 10 -4z m37 -51 c-4 -8 -11 -15 -17 -15 -7 0 -7 6 0 21
13 23 26 19 17 -6z m813 -25 c0 -5 -4 -10 -10 -10 -5 0 -10 5 -10 10 0 6 5 10
10 10 6 0 10 -4 10 -10z m-530 -220 c0 -5 -2 -10 -4 -10 -3 0 -8 5 -11 10 -3
6 -1 10 4 10 6 0 11 -4 11 -10z m-690 -326 c0 -14 -4 -23 -10 -19 -5 3 -10 -1
-10 -10 0 -9 -4 -14 -9 -10 -13 7 -10 48 4 57 18 13 25 9 25 -18z m6705 -44
c3 -5 1 -10 -4 -10 -6 0 -11 5 -11 10 0 6 2 10 4 10 3 0 8 -4 11 -10z m-6745
-110 c0 -10 -5 -22 -11 -26 -8 -5 -8 -8 0 -14 7 -4 9 -15 4 -25 -6 -17 -7 -17
-13 6 -9 31 -1 91 11 83 5 -3 9 -14 9 -24z m6781 -813 c-10 -9 -11 -8 -5 6 3
10 9 15 12 12 3 -3 0 -11 -7 -18z m-21 -274 c0 -5 -5 -15 -10 -23 -8 -12 -10
-11 -10 8 0 12 5 22 10 22 6 0 10 -3 10 -7z m-40 -278 c0 -8 -4 -15 -10 -15
-5 0 -10 -7 -10 -17 0 -9 -2 -14 -5 -11 -9 8 6 58 16 58 5 0 9 -7 9 -15z m0
-146 c0 -18 -18 -9 -23 12 -4 16 -3 18 9 8 8 -6 14 -15 14 -20z m-110 -59 c0
-5 -2 -10 -4 -10 -3 0 -8 5 -11 10 -3 6 -1 10 4 10 6 0 11 -4 11 -10z m27
-202 c-2 -7 -10 -12 -16 -10 -6 1 -11 -5 -11 -14 0 -8 -4 -12 -10 -9 -16 10
-12 33 8 38 30 8 34 7 29 -5z m-58 -160 c0 -27 -2 -29 -8 -13 -5 11 -6 26 -4
33 8 21 13 13 12 -20z m-42 8 c-3 -8 -2 -16 3 -18 5 -2 6 -9 1 -17 -5 -7 -13
-11 -19 -8 -12 8 -3 57 10 57 6 0 8 -6 5 -14z m-129 -530 c2 -10 -4 -24 -15
-31 -21 -16 -39 -9 -23 10 8 10 8 15 -1 20 -8 6 -7 10 2 16 19 12 33 6 37 -15z
m-46 -88 c-7 -7 -12 -8 -12 -2 0 14 12 26 19 19 2 -3 -1 -11 -7 -17z m-22 -17
c0 -6 -4 -13 -10 -16 -5 -3 -10 1 -10 9 0 9 5 16 10 16 6 0 10 -4 10 -9z m-10
-56 c0 -9 -9 -15 -21 -15 -18 0 -19 2 -9 15 7 8 16 15 21 15 5 0 9 -7 9 -15z
m-26 -57 c-10 -32 -31 -61 -37 -51 -8 12 20 73 33 73 7 0 9 -8 4 -22z m-62
-120 c-7 -7 -12 -8 -12 -2 0 14 12 26 19 19 2 -3 -1 -11 -7 -17z m38 -48 c0
-5 -4 -10 -10 -10 -5 0 -10 5 -10 10 0 6 5 10 10 10 6 0 10 -4 10 -10z m-100
-69 c0 -5 3 -16 6 -25 4 -10 1 -16 -9 -16 -20 0 -29 14 -21 34 7 17 24 22 24
7z m-57 -56 c4 -8 2 -17 -3 -20 -6 -4 -10 3 -10 14 0 25 6 27 13 6z m67 -49
c0 -8 -4 -18 -10 -21 -5 -3 -10 3 -10 14 0 12 5 21 10 21 6 0 10 -6 10 -14z
m-83 -36 c1 -14 -4 -20 -18 -20 -22 0 -24 11 -7 28 17 17 24 15 25 -8z m-107
-150 c0 -5 -4 -10 -10 -10 -5 0 -10 5 -10 10 0 6 5 10 10 10 6 0 10 -4 10 -10z
m60 -26 c0 -13 -4 -24 -9 -24 -13 0 -24 37 -16 50 10 16 25 1 25 -26z m-220
-273 c0 -5 -7 -11 -14 -14 -10 -4 -13 -1 -9 9 6 15 23 19 23 5z m-1629 -255
c-11 -11 -23 -17 -27 -13 -10 9 13 34 31 34 13 0 12 -4 -4 -21z m1199 -256 c0
-5 -4 -10 -10 -10 -5 0 -10 5 -10 10 0 6 5 10 10 10 6 0 10 -4 10 -10z m-1800
-20 c0 -5 -4 -10 -10 -10 -5 0 -10 5 -10 10 0 6 5 10 10 10 6 0 10 -4 10 -10z
m1689 -107 c-16 -19 -27 -7 -21 23 5 25 6 26 18 9 10 -13 11 -22 3 -32z m-264
-263 c3 -5 1 -10 -4 -10 -6 0 -11 5 -11 10 0 6 2 10 4 10 3 0 8 -4 11 -10z
m-20 -30 c3 -5 1 -10 -4 -10 -6 0 -11 5 -11 10 0 6 2 10 4 10 3 0 8 -4 11 -10z
m-235 -200 c0 -5 -5 -10 -11 -10 -5 0 -7 5 -4 10 3 6 8 10 11 10 2 0 4 -4 4
-10z m-2755 -10 c3 -5 1 -10 -4 -10 -6 0 -11 5 -11 10 0 6 2 10 4 10 3 0 8 -4
11 -10z m2422 -316 c-9 -9 -28 6 -21 18 4 6 10 6 17 -1 6 -6 8 -13 4 -17z
m-2503 -56 c-1 -13 -3 -26 -3 -30 -1 -5 -5 -8 -11 -8 -5 0 -10 14 -10 30 0 18
5 30 13 30 8 0 13 -9 11 -22z m16 -104 c0 -8 -4 -12 -10 -9 -5 3 -10 10 -10
16 0 5 5 9 10 9 6 0 10 -7 10 -16z m1690 -275 c0 -5 -4 -9 -10 -9 -5 0 -10 7
-10 16 0 8 5 12 10 9 6 -3 10 -10 10 -16z m-193 -31 c-3 -8 -6 -5 -6 6 -1 11
2 17 5 13 3 -3 4 -12 1 -19z m-617 -28 c0 -5 -4 -10 -10 -10 -5 0 -10 5 -10
10 0 6 5 10 10 10 6 0 10 -4 10 -10z m270 -10 c0 -5 -5 -10 -11 -10 -5 0 -7 5
-4 10 3 6 8 10 11 10 2 0 4 -4 4 -10z"/>
<path d="M6025 8180 c3 -5 8 -10 11 -10 2 0 4 5 4 10 0 6 -5 10 -11 10 -5 0
-7 -4 -4 -10z"/>
<path d="M5617 7596 c-4 -11 -3 -24 3 -30 14 -14 18 -5 10 24 -5 23 -7 23 -13
6z"/>
<path d="M5260 11475 c0 -9 9 -15 25 -15 18 0 23 4 19 15 -4 8 -15 15 -25 15
-10 0 -19 -7 -19 -15z"/>
<path d="M5323 11477 c5 -15 79 -16 84 -1 2 7 -14 11 -42 12 -31 0 -45 -4 -42
-11z"/>
<path d="M5145 11463 c-11 -3 -31 -10 -45 -16 -14 -6 -29 -9 -34 -8 -21 5 -66
-12 -66 -25 0 -9 -11 -14 -29 -14 -16 0 -41 -4 -55 -10 -14 -5 -43 -10 -63
-11 -21 -1 -47 -7 -58 -13 -11 -5 -32 -9 -47 -7 -16 1 -28 -2 -28 -8 0 -6 -14
-11 -30 -11 -17 0 -40 -5 -53 -12 -12 -6 -29 -14 -37 -18 -8 -4 -14 -15 -12
-24 4 -23 -15 -20 -23 4 -8 25 -25 17 -18 -9 3 -11 -2 -21 -12 -25 -12 -4 -16
-1 -13 17 2 18 -1 21 -22 19 -14 -2 -32 -10 -41 -18 -8 -8 -20 -14 -26 -14 -6
0 -8 -11 -5 -25 3 -20 1 -24 -12 -19 -12 5 -15 2 -10 -12 5 -15 4 -16 -4 -4
-9 12 -14 12 -38 0 -15 -8 -41 -28 -58 -45 -17 -16 -34 -28 -39 -27 -11 3 -87
-47 -87 -58 0 -6 -6 -10 -13 -10 -8 0 -24 -11 -36 -24 -13 -14 -29 -22 -37
-19 -20 7 -107 -56 -100 -74 4 -10 0 -13 -17 -11 -14 2 -21 -2 -19 -11 2 -9
-3 -11 -13 -7 -10 4 -19 -2 -26 -17 -6 -13 -20 -24 -31 -24 -21 -2 -88 -65
-88 -83 0 -5 -6 -7 -13 -4 -15 5 -77 -47 -77 -65 0 -6 -5 -11 -11 -11 -5 0 -7
-5 -3 -12 4 -7 3 -8 -5 -4 -6 4 -21 4 -32 1 -16 -5 -19 -12 -15 -31 6 -23 0
-29 -31 -25 -7 1 -20 -10 -29 -24 -20 -30 -41 -33 -46 -5 -3 20 -5 19 -40 -6
-21 -15 -38 -31 -38 -36 0 -5 4 -7 9 -4 13 8 19 -26 10 -52 -5 -12 -15 -22
-24 -22 -9 0 -25 -15 -35 -33 -11 -19 -32 -40 -47 -48 -50 -25 -120 -104 -127
-143 -4 -22 -13 -36 -21 -36 -8 0 -15 -7 -15 -16 0 -9 -6 -14 -12 -11 -7 2
-12 13 -11 23 1 13 -29 -11 -89 -68 -85 -82 -90 -90 -85 -121 4 -29 1 -35 -25
-50 -40 -23 -44 -17 -13 18 39 41 21 43 -20 1 -19 -20 -35 -45 -35 -56 0 -10
-9 -22 -20 -25 -11 -4 -18 -11 -15 -16 3 -5 1 -17 -5 -28 -7 -13 -7 -22 0 -26
5 -3 10 -1 10 6 0 10 3 10 12 1 9 -9 9 -15 0 -24 -7 -7 -12 -20 -12 -30 0 -10
-4 -18 -10 -18 -5 0 -10 6 -10 14 0 7 -7 19 -15 26 -11 9 -14 22 -9 46 7 39
-7 45 -24 12 -13 -25 -13 -70 0 -62 17 11 7 -67 -11 -85 -11 -11 -18 -27 -18
-38 1 -12 -6 -19 -20 -21 -15 -2 -23 -10 -23 -23 0 -20 -15 -26 -25 -10 -3 5
2 16 10 24 8 9 15 18 15 22 0 4 7 13 15 22 8 8 13 19 9 24 -8 13 -51 -22 -50
-41 1 -10 -7 -14 -23 -12 -20 2 -23 -1 -18 -23 3 -19 1 -25 -8 -21 -16 6 -28
-46 -12 -56 6 -4 16 3 21 14 12 23 36 36 36 20 0 -5 -11 -20 -25 -33 -13 -13
-28 -39 -31 -58 -6 -31 -8 -32 -19 -17 -8 11 -15 13 -20 7 -3 -6 -10 -11 -16
-11 -5 0 -1 8 9 18 13 13 18 29 14 50 -6 42 -29 42 -30 0 0 -17 -10 -44 -21
-59 -12 -15 -18 -35 -15 -43 5 -12 0 -16 -19 -16 -14 0 -27 7 -31 15 -3 8 -11
15 -18 15 -10 0 -10 -2 -1 -8 16 -10 5 -52 -14 -52 -12 0 -13 -3 -4 -13 6 -8
8 -17 4 -20 -11 -12 -23 -7 -23 9 0 14 -3 14 -15 4 -21 -17 -19 -25 10 -38 29
-13 37 -59 9 -48 -12 4 -15 2 -10 -9 3 -8 1 -15 -3 -15 -5 0 -11 4 -13 8 -1 5
-14 12 -28 15 -20 5 -27 1 -37 -20 -8 -15 -9 -29 -4 -32 13 -9 1 -61 -14 -61
-7 0 -15 6 -18 13 -4 9 -7 9 -18 -1 -11 -10 -10 -17 4 -41 21 -36 22 -51 2
-51 -10 0 -15 10 -15 29 0 45 -15 45 -44 1 -31 -47 -31 -46 -10 -54 11 -4 15
-2 11 8 -4 10 -1 13 8 10 23 -9 26 -34 5 -56 -11 -12 -17 -25 -14 -30 7 -11
-15 -38 -31 -38 -21 0 -15 51 7 59 18 6 18 8 4 20 -13 11 -17 10 -23 -5 -4
-11 -14 -24 -23 -31 -9 -7 -25 -37 -34 -68 -10 -30 -21 -53 -26 -50 -15 9 -21
-29 -6 -40 23 -17 26 -75 3 -75 -7 0 -12 12 -12 30 0 16 -4 30 -10 30 -10 0
-11 -4 -14 -36 -1 -10 -7 -14 -16 -11 -8 4 -17 3 -19 -2 -11 -16 -22 -120 -16
-133 4 -7 4 -22 0 -33 -6 -16 -8 -13 -14 18 -6 33 -9 36 -21 23 -8 -8 -15 -24
-15 -36 0 -11 -7 -32 -16 -45 -10 -16 -14 -34 -10 -50 4 -14 2 -25 -4 -25 -5
0 -10 -12 -10 -27 0 -21 -3 -24 -12 -15 -9 9 -16 8 -30 -5 -17 -15 -17 -17 -1
-35 13 -14 14 -21 5 -30 -17 -17 -15 -31 3 -24 13 4 14 2 5 -14 -6 -11 -14
-20 -19 -20 -10 0 -25 -56 -23 -82 1 -10 -5 -18 -14 -18 -11 0 -14 6 -9 23 7
22 7 22 -12 2 -25 -26 -35 -53 -23 -60 6 -4 10 3 10 14 0 12 5 21 10 21 12 0
12 -27 1 -55 -5 -11 -4 -25 1 -32 7 -9 7 -13 -1 -13 -6 0 -11 -11 -11 -24 0
-29 -39 -77 -46 -58 -10 22 -26 13 -18 -10 6 -20 5 -21 -9 -10 -13 11 -16 9
-22 -18 -4 -17 -8 -43 -10 -56 -1 -14 -5 -27 -9 -31 -3 -3 1 -11 8 -17 11 -9
12 -24 4 -76 -5 -36 -10 -75 -11 -87 -1 -12 -8 -28 -14 -35 -7 -6 -13 -17 -13
-24 0 -6 -10 -19 -23 -27 -21 -15 -21 -15 15 -11 32 4 37 2 32 -13 -5 -14 -4
-15 4 -4 6 8 17 11 26 8 19 -7 22 -37 4 -37 -7 0 -5 -5 4 -11 22 -12 24 -39 3
-39 -8 0 -15 -4 -15 -10 0 -5 -6 -10 -13 -10 -15 0 -21 -78 -7 -95 5 -6 1 -19
-10 -32 -21 -27 -31 -12 -24 35 3 17 0 33 -6 37 -5 3 -10 16 -11 28 0 12 -6 0
-14 -28 -9 -35 -10 -54 -3 -62 7 -9 7 -22 -2 -43 -14 -35 -26 -38 -35 -10 -3
11 -11 20 -16 20 -13 0 -11 -48 2 -52 13 -4 21 -68 9 -68 -4 0 -11 10 -14 23
l-7 22 -10 -25 c-6 -13 -8 -34 -5 -45 6 -25 46 -31 46 -8 0 14 2 14 19 -1 17
-15 18 -22 8 -49 -11 -29 -12 -30 -15 -9 -5 32 -28 21 -24 -12 2 -19 -2 -26
-14 -26 -13 0 -16 -7 -11 -36 7 -45 0 -69 -18 -54 -9 8 -14 5 -18 -10 -4 -16
1 -23 19 -31 33 -12 44 -11 44 2 0 5 4 8 10 4 14 -8 0 -37 -16 -31 -9 4 -12
-7 -11 -42 2 -35 -2 -46 -11 -44 -8 1 -16 -7 -19 -18 -3 -11 -12 -20 -19 -20
-9 0 -14 -12 -14 -37 l0 -36 25 23 c13 13 27 31 31 42 3 10 10 18 16 18 6 0 7
-7 3 -17 -4 -10 -7 -42 -6 -71 2 -39 -1 -53 -11 -51 -30 4 -38 -2 -38 -27 0
-23 3 -25 25 -20 24 6 25 5 13 -14 -10 -16 -10 -24 0 -40 6 -11 12 -26 12 -34
0 -8 6 -17 13 -20 6 -3 1 -3 -13 0 -14 4 -28 11 -32 17 -4 6 -12 4 -22 -6 -16
-16 -23 -42 -8 -33 4 2 25 -4 47 -14 30 -14 36 -20 24 -25 -20 -7 -41 -3 -52
10 -5 6 -6 2 -3 -8 3 -10 -2 -30 -11 -44 -13 -20 -14 -28 -5 -31 14 -4 16 -72
2 -72 -17 0 -11 -37 6 -44 9 -4 18 -5 20 -4 6 7 16 65 18 110 3 57 16 76 17
27 0 -19 2 -53 4 -76 2 -24 -1 -46 -7 -49 -5 -3 -7 -18 -4 -32 3 -15 8 -74 12
-132 3 -58 8 -132 10 -165 3 -33 7 -90 9 -127 2 -37 6 -72 10 -78 3 -5 -3 -10
-14 -10 -13 0 -19 5 -15 14 3 7 -2 16 -12 20 -13 5 -15 2 -10 -16 3 -13 6 -29
6 -36 0 -7 4 -11 9 -8 13 9 32 -19 25 -38 -4 -12 0 -16 15 -16 12 0 21 -4 21
-10 0 -5 -11 -10 -25 -10 -14 0 -25 -5 -25 -11 0 -5 4 -8 9 -4 6 3 14 -2 19
-12 12 -24 13 -113 0 -113 -5 0 -8 -10 -6 -22 2 -16 9 -22 21 -20 18 3 23 -13
7 -23 -7 -4 -6 -13 1 -26 5 -11 8 -30 5 -42 -3 -12 -3 -16 0 -9 3 6 10 9 15 6
6 -3 5 -11 -2 -20 -9 -11 -8 -18 3 -32 10 -11 14 -29 11 -50 -3 -18 0 -38 6
-46 7 -8 14 -38 17 -67 3 -30 9 -63 14 -74 27 -61 67 -196 59 -200 -8 -6 4
-54 25 -95 7 -14 16 -45 20 -70 4 -25 14 -56 24 -70 9 -14 15 -32 14 -41 -2
-9 4 -19 13 -22 8 -4 15 -17 15 -29 0 -41 21 -98 35 -98 11 0 12 -6 5 -25 -5
-14 -6 -25 -1 -25 5 0 11 -13 14 -30 4 -16 15 -38 26 -49 13 -13 18 -27 14
-37 -4 -10 0 -20 10 -26 10 -5 17 -16 17 -24 0 -10 9 -14 28 -12 22 2 28 -1
31 -22 3 -25 3 -25 -18 -6 -21 19 -21 19 -21 0 0 -10 9 -32 20 -49 11 -16 20
-38 20 -47 0 -9 3 -18 8 -20 15 -7 62 -107 56 -122 -7 -18 26 -64 43 -59 11 4
29 -33 25 -50 -1 -4 5 -7 13 -7 8 0 20 -10 26 -23 7 -12 18 -25 25 -30 8 -5
11 -19 7 -40 -5 -31 15 -63 42 -67 6 -1 9 -8 9 -16 -2 -11 1 -12 12 -3 15 12
15 13 18 -45 1 -16 7 -31 14 -34 7 -2 12 -8 12 -13 0 -5 16 -23 35 -40 19 -17
35 -39 35 -49 0 -11 8 -25 18 -32 10 -7 31 -32 47 -55 17 -24 36 -43 43 -43 6
0 12 -8 12 -17 0 -10 25 -46 56 -81 52 -58 58 -62 73 -47 25 22 37 19 17 -4
-17 -19 -17 -21 5 -51 13 -17 29 -28 37 -25 8 3 16 -3 19 -15 4 -16 8 -18 19
-9 11 9 14 6 14 -19 0 -24 9 -38 44 -66 23 -20 48 -36 53 -36 6 0 13 -7 17
-15 3 -8 16 -20 29 -26 13 -6 28 -24 34 -40 6 -16 18 -29 27 -29 9 0 16 -4 16
-8 0 -4 23 -26 52 -47 28 -22 58 -46 66 -55 9 -8 24 -19 34 -25 10 -5 50 -32
90 -60 46 -33 73 -46 75 -37 7 20 20 14 19 -10 -1 -17 9 -28 37 -41 20 -10 37
-23 37 -28 0 -5 6 -9 14 -9 7 0 19 -7 26 -15 18 -21 102 -66 118 -63 8 2 31
-14 52 -34 20 -20 49 -40 65 -44 15 -4 36 -15 46 -25 10 -10 31 -21 46 -25 16
-4 35 -12 43 -19 21 -18 140 -75 155 -75 7 0 18 -7 25 -15 7 -8 20 -15 30 -15
10 0 23 -7 30 -15 7 -9 19 -14 27 -11 7 3 13 2 13 -3 0 -6 57 -35 125 -61 49
-20 88 -29 96 -24 5 3 19 -2 31 -10 12 -9 32 -16 45 -16 12 0 24 -4 27 -9 6
-9 80 -35 134 -46 23 -5 32 -3 32 7 1 8 7 5 18 -7 23 -28 53 -39 64 -23 5 9 8
8 8 -6 0 -13 5 -17 20 -13 12 3 23 -1 29 -10 5 -10 25 -16 55 -17 25 -1 46 -6
45 -11 -2 -15 26 -25 54 -19 16 3 34 1 42 -6 8 -7 25 -10 37 -7 13 4 29 0 40
-9 10 -10 22 -13 30 -8 27 17 48 14 48 -6 0 -21 4 -22 78 -25 24 -1 47 -6 50
-12 4 -6 21 -14 38 -17 24 -5 33 -3 38 9 3 9 10 13 16 10 6 -4 8 -10 5 -15 -8
-13 21 -31 40 -23 12 4 16 3 12 -4 -11 -18 46 -23 59 -5 10 14 12 14 21 -2 5
-10 30 -20 59 -25 27 -5 58 -12 69 -16 15 -4 24 1 37 22 10 15 18 23 18 17 0
-6 21 -12 47 -13 51 -1 83 18 83 51 0 11 6 18 14 16 16 -3 19 4 9 28 -3 9 0
20 8 25 11 7 9 10 -10 16 -23 6 -23 9 -18 71 4 36 4 62 1 60 -3 -3 -26 1 -51
8 -25 8 -61 14 -80 14 -18 0 -33 5 -33 11 0 7 -20 10 -55 7 -30 -1 -55 1 -55
5 0 4 -44 8 -97 8 -147 1 -153 1 -153 10 0 5 -20 9 -45 9 -24 0 -65 7 -91 16
-25 8 -52 13 -60 10 -7 -3 -16 -1 -18 3 -5 8 -63 25 -77 23 -4 -1 -31 8 -60
19 -83 31 -111 40 -144 45 -16 2 -31 9 -33 14 -2 6 -9 10 -16 10 -7 0 -34 11
-62 24 -92 44 -143 66 -153 66 -6 0 -11 4 -11 8 0 5 -18 16 -40 26 -22 10 -46
24 -54 31 -16 17 -110 71 -148 86 -16 6 -28 15 -28 20 0 5 -7 9 -15 9 -9 0
-25 8 -36 19 -11 10 -45 36 -77 57 -31 21 -59 41 -62 45 -3 3 -20 14 -38 24
-17 11 -35 27 -38 37 -3 10 -11 18 -19 18 -7 0 -25 14 -38 30 -14 17 -29 30
-34 30 -5 0 -16 8 -25 18 -21 22 -60 52 -69 52 -4 0 -11 9 -14 20 -9 28 -55
76 -69 72 -6 -2 -8 0 -4 4 12 11 -12 34 -36 35 -11 0 -15 3 -9 6 15 6 -44 83
-63 83 -8 0 -22 17 -33 38 -11 20 -35 53 -55 71 -20 19 -36 41 -36 48 0 7 -4
13 -10 13 -5 0 -10 6 -10 14 0 14 -21 42 -67 91 -13 13 -23 31 -23 38 0 8 -11
22 -25 31 -14 9 -25 25 -25 36 0 13 -10 24 -25 30 -17 7 -27 20 -32 41 -3 19
-14 34 -25 36 -17 5 -23 16 -19 37 1 7 -28 55 -77 126 -2 2 -8 -2 -13 -10 -9
-13 -10 -13 -8 0 3 28 -1 41 -10 35 -12 -7 -33 29 -29 48 4 19 -55 97 -70 92
-10 -4 -12 2 -7 25 4 19 3 30 -4 30 -6 0 -11 9 -11 20 0 11 -4 20 -9 20 -5 0
-12 11 -15 25 -4 14 -11 25 -16 25 -6 0 -10 9 -10 19 0 11 -4 22 -9 26 -5 3
-12 18 -16 34 -3 16 -15 37 -26 47 -10 9 -19 30 -19 45 0 17 -9 35 -25 47 -15
12 -25 30 -25 46 0 17 -5 26 -16 26 -12 0 -15 6 -11 21 3 12 2 31 -3 43 -5 11
-25 66 -45 121 -20 55 -40 108 -46 117 -5 10 -9 24 -9 32 0 7 -6 19 -14 25 -8
7 -18 31 -21 54 -4 23 -16 64 -26 90 -11 26 -19 59 -19 72 0 14 -9 34 -20 45
-12 12 -18 25 -15 30 3 5 1 19 -5 30 -6 11 -13 36 -16 56 -2 19 -8 43 -12 52
-5 9 -14 44 -21 77 -6 33 -18 92 -26 130 -8 39 -19 106 -25 150 -7 44 -16 102
-21 128 -5 27 -7 53 -4 58 9 13 -6 109 -16 103 -5 -3 -9 2 -9 10 0 8 4 17 9
20 13 9 14 273 0 281 -8 6 -8 10 2 16 16 9 19 97 4 103 -6 3 -4 9 4 14 10 7
14 39 16 109 2 55 5 109 9 119 10 32 18 106 17 151 -1 23 4 45 9 48 8 5 7 11
-1 21 -9 11 -8 18 6 34 12 13 16 31 13 59 -2 23 0 42 4 43 8 3 20 97 18 152 0
28 5 45 20 58 12 11 19 26 16 33 -3 8 0 16 7 19 9 5 9 7 0 12 -19 8 -16 27 3
20 12 -4 15 -2 11 9 -4 8 -2 17 2 20 5 2 12 20 15 39 4 19 14 48 22 66 9 17
16 47 17 66 1 18 5 34 9 34 4 0 8 14 8 30 0 17 4 30 9 30 12 0 22 43 12 50 -4
3 -11 19 -15 35 -5 24 -4 27 5 12 18 -30 37 -2 45 63 4 36 12 61 20 64 9 3 14
21 14 49 0 27 6 49 15 57 8 7 15 18 15 26 0 7 7 20 16 28 8 9 12 20 9 26 -3 5
-2 10 4 10 13 0 41 53 41 78 0 10 11 33 25 52 14 19 25 44 25 57 0 13 4 23 9
23 4 0 6 11 3 25 -2 14 -1 25 4 24 24 -4 34 3 34 26 0 14 3 25 8 25 4 0 12 8
17 19 6 10 20 37 33 61 13 23 21 44 18 47 -3 3 2 12 10 21 9 8 13 24 10 35 -3
13 1 21 13 24 10 3 40 44 67 91 27 48 68 116 91 152 24 36 43 69 43 74 0 4 14
24 30 43 17 18 30 40 30 48 0 8 5 15 10 15 6 0 10 5 10 10 0 6 23 38 50 71 28
33 50 64 50 69 0 5 13 16 29 25 18 9 35 29 42 50 7 19 17 35 21 35 4 0 8 6 8
14 0 7 9 16 20 19 11 3 23 13 27 24 4 10 16 26 27 36 59 51 76 71 76 89 0 14
5 18 15 15 9 -4 41 21 88 67 40 40 81 75 90 79 9 3 17 13 17 22 0 8 7 15 15
15 8 0 15 7 15 16 0 10 6 14 14 11 8 -3 17 1 20 9 3 9 11 12 17 8 7 -4 9 -3 6
3 -8 12 36 56 46 46 4 -3 7 -1 7 6 0 6 8 11 18 9 11 -2 17 3 17 16 0 10 9 24
20 30 11 6 23 16 27 23 5 6 16 9 25 7 10 -3 33 5 51 16 23 14 32 27 32 47 1
26 2 27 14 10 13 -17 16 -17 46 -2 19 10 30 22 26 30 -2 7 2 19 10 25 13 11
18 7 15 -12 -3 -22 29 -2 45 27 14 25 44 32 44 10 0 -13 4 -14 20 -5 12 6 19
19 17 33 -1 14 3 22 13 22 8 0 15 -5 15 -12 0 -19 12 -25 32 -14 33 19 110 49
142 56 17 3 33 11 36 16 4 5 13 9 22 9 8 0 31 7 51 16 21 9 52 22 70 30 18 8
37 12 42 9 5 -3 19 4 30 15 11 11 24 18 29 16 4 -3 17 1 27 9 10 8 29 15 42
15 12 0 22 5 22 10 0 6 6 10 14 10 7 0 25 9 39 20 14 11 30 20 36 20 5 0 22
11 37 25 15 14 35 25 46 25 10 0 30 7 43 16 20 13 25 14 25 3 0 -10 3 -10 8
-3 8 13 72 17 72 4 0 -5 9 -10 21 -12 l20 -3 -20 -22 c-23 -25 -27 -38 -8 -27
9 5 9 3 -1 -7 -9 -10 -15 -11 -20 -3 -5 9 -11 8 -20 -2 -10 -12 -10 -14 3 -14
19 0 19 -9 -2 -32 -15 -17 -15 -18 0 -18 10 0 17 -8 17 -20 0 -18 -3 -19 -22
-9 -13 6 -20 8 -16 4 4 -4 -1 -20 -12 -35 -11 -16 -20 -35 -20 -43 0 -8 -7
-17 -15 -21 -8 -3 -15 -1 -15 4 0 6 -4 10 -10 10 -5 0 -7 -7 -3 -16 4 -11 13
-13 33 -9 21 5 27 2 27 -12 0 -10 -4 -23 -9 -30 -5 -7 -7 -17 -3 -23 3 -5 1
-10 -6 -10 -14 0 -59 -46 -59 -61 0 -5 5 -9 11 -9 6 0 1 -14 -11 -31 -12 -16
-20 -33 -17 -36 8 -7 107 27 127 44 9 7 26 10 38 6 12 -3 29 0 37 7 8 6 24 13
37 15 47 6 124 29 140 43 9 7 27 13 40 12 48 -4 63 -1 50 12 -17 17 -15 38 3
38 8 0 15 -9 15 -20 0 -30 57 -24 145 16 17 7 43 18 58 24 20 7 27 15 23 28
-9 29 8 43 59 48 55 5 66 10 59 27 -2 7 2 21 10 32 9 11 16 15 16 8 0 -6 -4
-15 -10 -18 -5 -3 -10 -10 -10 -15 0 -12 53 -5 79 12 21 13 23 16 25 41 2 20
41 35 111 42 64 7 65 8 65 37 0 20 -4 27 -12 22 -8 -5 -9 -2 -5 9 3 9 2 19 -4
22 -11 7 -3 25 12 25 5 0 9 -7 9 -15 0 -8 5 -15 10 -15 12 0 13 20 1 39 -6 9
-18 11 -42 6 -30 -7 -31 -6 -17 8 15 16 34 17 54 4 7 -4 17 0 24 8 7 8 21 15
32 15 15 0 18 5 14 16 -4 10 1 25 10 35 16 18 16 19 1 19 -24 0 -21 13 9 41
37 34 48 57 34 74 -8 10 -6 17 6 30 13 13 14 19 5 28 -10 9 -16 8 -27 -7 -7
-11 -17 -16 -21 -12 -4 4 -3 10 3 14 15 10 25 42 17 55 -12 19 -14 69 -3 62 6
-4 1 11 -11 32 -12 21 -26 41 -32 45 -6 4 -8 10 -5 14 4 3 18 -6 31 -20 29
-31 37 -33 37 -6 0 11 -7 20 -15 20 -17 0 -20 16 -4 25 6 4 -2 17 -20 32 -17
14 -28 30 -25 34 3 5 10 7 15 4 18 -12 36 20 32 58 -3 34 -1 37 21 37 33 0 49
30 52 101 3 49 0 59 -21 79 -14 13 -25 29 -25 37 0 7 -4 13 -10 13 -5 0 -10 5
-10 10 0 6 -9 19 -21 31 -18 18 -31 20 -82 17 -34 -1 -65 -7 -69 -13 -5 -6 -8
-5 -8 3 0 7 -13 12 -31 12 -23 0 -30 4 -25 15 3 8 -3 19 -14 25 -26 14 -29 13
-23 -10 5 -18 3 -19 -28 -9 -19 6 -41 13 -49 15 -12 4 -13 6 0 14 12 8 12 10
-3 16 -25 9 -21 34 5 34 27 0 12 17 -17 20 -32 4 -45 1 -45 -10 0 -5 7 -7 15
-4 19 8 19 -7 0 -32 -10 -13 -14 -14 -15 -5 0 11 -3 11 -15 1 -12 -10 -15 -10
-16 1 -4 48 0 45 -64 36 -5 -1 -9 6 -9 16 1 9 -3 17 -10 17 -6 0 -4 5 4 10 12
8 10 10 -10 10 -16 0 -35 11 -50 30 -14 17 -31 30 -38 30 -7 0 -21 5 -31 12
-14 9 -23 8 -42 -5 -30 -22 -54 -21 -104 3 -29 13 -42 15 -47 7 -5 -8 -9 -7
-13 3 -4 12 -25 16 -85 17 -44 1 -82 -3 -86 -8 -3 -5 -12 -5 -22 0 -49 25
-156 21 -256 -9 -22 -7 -34 -5 -53 9 l-23 19 39 -5 c22 -3 60 -2 84 1 43 7 44
8 33 31 -11 25 -22 28 -61 18z m130 -63 c3 -5 1 -10 -4 -10 -6 0 -11 5 -11 10
0 6 2 10 4 10 3 0 8 -4 11 -10z m275 -20 c0 -5 -4 -10 -10 -10 -5 0 -10 5 -10
10 0 6 5 10 10 10 6 0 10 -4 10 -10z m-810 -60 c0 -5 -4 -10 -10 -10 -5 0 -10
5 -10 10 0 6 5 10 10 10 6 0 10 -4 10 -10z m-80 -9 c0 -5 -7 -11 -14 -14 -10
-4 -13 -1 -9 9 6 15 23 19 23 5z m-30 -41 c0 -5 -5 -10 -11 -10 -5 0 -7 5 -4
10 3 6 8 10 11 10 2 0 4 -4 4 -10z m1800 -237 c0 -22 -2 -25 -10 -13 -13 20
-13 40 0 40 6 0 10 -12 10 -27z m20 -73 c0 -16 -4 -30 -10 -30 -11 0 -14 43
-3 53 11 12 13 8 13 -23z m-2503 -86 c-9 -9 -28 6 -21 18 4 6 10 6 17 -1 6 -6
8 -13 4 -17z m2416 -305 c4 -16 3 -18 -9 -8 -7 6 -11 15 -8 20 8 13 11 11 17
-12z m-2813 -29 c0 -5 -5 -10 -11 -10 -5 0 -7 5 -4 10 3 6 8 10 11 10 2 0 4
-4 4 -10z m-200 -211 c0 -6 -4 -7 -10 -4 -5 3 -10 11 -10 16 0 6 5 7 10 4 6
-3 10 -11 10 -16z m2978 -86 c-14 -17 -28 -16 -28 1 0 8 9 14 19 13 15 -1 17
-4 9 -14z m-50 -132 c3 -8 -1 -12 -9 -9 -7 2 -15 10 -17 17 -3 8 1 12 9 9 7
-2 15 -10 17 -17z m-3186 -67 l-5 -27 -13 24 c-9 17 -9 26 -1 31 18 11 25 1
19 -28z m3008 -39 c0 -8 -4 -15 -9 -15 -13 0 -22 16 -14 24 11 11 23 6 23 -9z
m-126 -27 c7 -5 5 -8 -6 -8 -21 0 -32 16 -22 32 6 9 9 8 12 -2 3 -8 10 -18 16
-22z m-2994 -39 c0 -5 -4 -9 -10 -9 -5 0 -10 7 -10 16 0 8 5 12 10 9 6 -3 10
-10 10 -16z m1780 1 c0 -5 -4 -10 -10 -10 -5 0 -10 5 -10 10 0 6 5 10 10 10 6
0 10 -4 10 -10z m-572 -250 c-7 -11 -20 -20 -28 -20 -11 1 -8 6 9 20 30 25 34
25 19 0z m-1634 -255 c-6 -16 -24 -21 -24 -7 0 11 11 22 21 22 5 0 6 -7 3 -15z
m-164 -295 c0 -5 -4 -10 -10 -10 -5 0 -10 5 -10 10 0 6 5 10 10 10 6 0 10 -4
10 -10z m-90 -144 c0 -7 -6 -19 -14 -25 -11 -9 -15 -7 -19 8 -3 11 -2 22 1 25
11 11 32 6 32 -8z m-104 -63 c-11 -11 -19 6 -11 24 8 17 8 17 12 0 3 -10 2
-21 -1 -24z m64 -28 c0 -8 -2 -15 -4 -15 -2 0 -6 7 -10 15 -3 8 -1 15 4 15 6
0 10 -7 10 -15z m-50 -30 c10 -12 10 -19 1 -28 -9 -9 -14 -9 -21 3 -22 34 -4
54 20 25z m-100 -105 c0 -5 -2 -10 -4 -10 -3 0 -8 5 -11 10 -3 6 -1 10 4 10 6
0 11 -4 11 -10z m24 -55 c-4 -8 -8 -15 -10 -15 -2 0 -4 7 -4 15 0 8 4 15 10
15 5 0 7 -7 4 -15z m-38 -99 c-18 -43 -40 -49 -30 -8 4 15 11 29 16 30 4 2 8
11 8 20 0 11 3 13 11 5 7 -7 6 -21 -5 -47z m-16 -58 c0 -11 -29 -23 -36 -15
-3 3 -4 10 0 15 7 11 36 11 36 0z m-30 -64 c0 -8 -4 -12 -10 -9 -5 3 -10 10
-10 16 0 5 5 9 10 9 6 0 10 -7 10 -16z m-38 -36 c-7 -7 -12 -8 -12 -2 0 14 12
26 19 19 2 -3 -1 -11 -7 -17z m-7 -37 c3 -5 0 -13 -6 -17 -8 -4 -7 -9 2 -15
16 -9 11 -16 -16 -21 -23 -4 -33 26 -15 47 14 17 26 19 35 6z m-51 -71 c7 0
13 -15 13 -37 1 -28 -4 -43 -20 -56 -16 -13 -18 -20 -9 -24 10 -4 9 -8 -5 -19
-17 -13 -17 -13 0 -14 18 0 25 -30 7 -30 -5 0 -10 -7 -10 -15 0 -7 -8 -18 -17
-24 -14 -8 -15 -12 -4 -25 11 -14 11 -16 -3 -16 -9 0 -16 6 -17 13 0 6 -7 -13
-15 -43 -8 -30 -13 -64 -10 -75 6 -29 -6 -56 -21 -47 -17 10 -24 73 -11 89 6
7 7 24 4 37 -5 19 -1 28 15 37 17 8 20 17 15 40 -4 20 -1 31 11 37 10 6 16 22
15 43 0 21 2 28 7 20 12 -19 21 40 10 61 -6 12 -6 18 1 18 5 0 10 -4 10 -10 0
-5 5 -10 11 -10 8 0 10 13 6 38 -3 20 -3 31 0 25 2 -7 10 -13 17 -13z m-101
-462 c-4 -7 -6 -22 -4 -33 2 -11 -1 -16 -5 -12 -4 4 -10 19 -11 32 -3 18 1 25
12 25 11 0 13 -4 8 -12z m-52 -45 c-9 -15 -10 -12 -10 17 0 29 1 32 10 18 7
-12 7 -24 0 -35z m-21 -129 c0 -8 -4 -14 -9 -14 -5 0 -16 -3 -25 -6 -11 -4
-16 -1 -16 10 0 9 7 16 15 16 8 0 15 5 15 11 0 5 5 7 10 4 6 -3 10 -13 10 -21z
m0 -215 c0 -6 -4 -7 -10 -4 -5 3 -10 11 -10 16 0 6 5 7 10 4 6 -3 10 -11 10
-16z m830 -113 c0 -3 -4 -8 -10 -11 -5 -3 -10 -1 -10 4 0 6 5 11 10 11 6 0 10
-2 10 -4z m-938 -82 c-3 -17 -8 -22 -15 -15 -7 7 -6 15 3 26 17 20 18 19 12
-11z m23 -1683 c3 -5 1 -12 -5 -16 -5 -3 -10 1 -10 9 0 18 6 21 15 7z m325
-1148 c0 -19 -3 -24 -10 -17 -6 6 -8 18 -4 27 9 24 14 21 14 -10z m160 -364
c0 -5 -4 -9 -10 -9 -5 0 -10 7 -10 16 0 8 5 12 10 9 6 -3 10 -10 10 -16z m26
-46 c-10 -10 -19 5 -10 18 6 11 8 11 12 0 2 -7 1 -15 -2 -18z m79 -113 c-3 -5
-10 -10 -16 -10 -5 0 -9 5 -9 10 0 6 7 10 16 10 8 0 12 -4 9 -10z m100 -130
c3 -5 1 -10 -4 -10 -6 0 -11 5 -11 10 0 6 2 10 4 10 3 0 8 -4 11 -10z m795
-100 c0 -8 -9 -1 -20 15 -11 17 -20 35 -20 40 1 16 40 -38 40 -55z m-726 -49
c7 -10 -18 -34 -27 -25 -7 8 3 34 13 34 5 0 11 -4 14 -9z m90 -97 c9 -24 7
-28 -9 -14 -17 14 -20 30 -6 30 5 0 12 -7 15 -16z m36 -54 c0 -11 -30 -21 -41
-14 -16 10 -9 19 16 20 14 1 25 -2 25 -6z m3173 -1625 c-5 -16 -33 -21 -33 -7
0 13 22 32 31 26 5 -2 6 -11 2 -19z"/>
<path d="M1911 8174 c0 -11 3 -14 6 -6 3 7 2 16 -1 19 -3 4 -6 -2 -5 -13z"/>
<path d="M5710 11400 c19 -13 30 -13 30 0 0 6 -10 10 -22 10 -19 0 -20 -2 -8
-10z"/>
<path d="M4420 11279 c0 -5 5 -7 10 -4 6 3 10 8 10 11 0 2 -4 4 -10 4 -5 0
-10 -5 -10 -11z"/>
<path d="M4334 11245 c-9 -22 1 -29 15 -11 8 10 9 16 1 21 -5 3 -13 -1 -16
-10z"/>
<path d="M4175 11180 c-3 -5 -2 -10 4 -10 5 0 13 5 16 10 3 6 2 10 -4 10 -5 0
-13 -4 -16 -10z"/>
<path d="M3780 10865 c-11 -13 -10 -14 4 -9 9 3 16 10 16 15 0 13 -6 11 -20
-6z"/>
<path d="M3725 10810 c-3 -5 -1 -10 4 -10 6 0 11 5 11 10 0 6 -2 10 -4 10 -3
0 -8 -4 -11 -10z"/>
<path d="M3645 10745 c-28 -25 -35 -35 -23 -35 10 0 23 9 30 20 7 11 18 20 24
20 7 0 14 7 18 15 9 23 -5 17 -49 -20z"/>
<path d="M3560 10661 c-16 -30 -12 -36 10 -16 21 19 26 35 10 35 -5 0 -14 -9
-20 -19z"/>
<path d="M6436 10561 c-4 -7 -5 -15 -2 -18 9 -9 19 4 14 18 -4 11 -6 11 -12 0z"/>
<path d="M3409 10533 c-12 -15 -12 -16 3 -11 10 4 19 1 22 -8 3 -9 10 -13 16
-9 6 4 5 13 -3 25 -15 24 -21 25 -38 3z"/>
<path d="M3205 10319 c-4 -6 -5 -12 -2 -15 2 -3 7 2 10 11 7 17 1 20 -8 4z"/>
<path d="M3166 10281 c-4 -7 -5 -15 -2 -18 9 -9 19 4 14 18 -4 11 -6 11 -12 0z"/>
<path d="M3215 10281 c-3 -5 -1 -12 5 -16 5 -3 10 1 10 9 0 18 -6 21 -15 7z"/>
<path d="M3110 10219 c0 -5 5 -7 10 -4 6 3 10 8 10 11 0 2 -4 4 -10 4 -5 0
-10 -5 -10 -11z"/>
<path d="M3053 10168 c-21 -28 -24 -38 -10 -38 8 0 17 10 20 22 7 27 3 33 -10
16z"/>
<path d="M6160 10015 c0 -8 5 -15 10 -15 6 0 10 7 10 15 0 8 -4 15 -10 15 -5
0 -10 -7 -10 -15z"/>
<path d="M5181 9844 c0 -11 3 -14 6 -6 3 7 2 16 -1 19 -3 4 -6 -2 -5 -13z"/>
<path d="M5205 9810 c-3 -5 -1 -10 4 -10 6 0 11 5 11 10 0 6 -2 10 -4 10 -3 0
-8 -4 -11 -10z"/>
<path d="M2750 9788 c0 -19 2 -20 10 -8 13 19 13 30 0 30 -5 0 -10 -10 -10
-22z"/>
<path d="M2785 9780 c-4 -6 -2 -17 4 -23 15 -15 25 -2 13 19 -7 12 -11 13 -17
4z"/>
<path d="M2710 9746 c0 -9 5 -16 10 -16 6 0 10 4 10 9 0 6 -4 13 -10 16 -5 3
-10 -1 -10 -9z"/>
<path d="M2565 9571 c-3 -5 -1 -12 5 -16 5 -3 10 1 10 9 0 18 -6 21 -15 7z"/>
<path d="M2535 9530 c-3 -5 -1 -10 4 -10 6 0 11 5 11 10 0 6 -2 10 -4 10 -3 0
-8 -4 -11 -10z"/>
<path d="M2410 9359 c0 -5 5 -7 10 -4 6 3 10 8 10 11 0 2 -4 4 -10 4 -5 0 -10
-5 -10 -11z"/>
<path d="M7968 8776 c-14 -20 -25 -23 -65 -21 -27 2 -63 -4 -81 -13 -18 -8
-46 -15 -62 -16 -15 -1 -26 -4 -24 -7 2 -3 -14 -14 -36 -24 -22 -10 -40 -24
-40 -31 0 -7 -6 -11 -12 -9 -13 5 -68 -39 -68 -54 0 -5 -11 -12 -25 -15 -14
-4 -32 -17 -41 -31 -9 -14 -23 -25 -30 -25 -28 0 -54 -38 -48 -69 6 -28 -10
-51 -24 -36 -4 4 -1 10 6 12 17 7 15 33 -3 33 -18 0 -77 -54 -69 -63 3 -3 -2
-17 -11 -31 -9 -14 -14 -30 -10 -36 9 -15 -11 -12 -24 3 -8 10 -7 17 2 27 6 8
2 6 -11 -5 -13 -11 -19 -21 -12 -23 8 -3 8 -8 0 -17 -9 -11 -7 -12 11 -8 18 5
21 3 16 -11 -4 -10 -7 -20 -7 -22 0 -10 -29 -3 -33 9 -2 6 -8 8 -13 4 -5 -4
-3 -12 4 -16 17 -10 5 -39 -19 -46 -10 -4 -19 -14 -19 -24 0 -17 -29 -51 -43
-51 -11 0 -66 -64 -67 -77 0 -6 6 -15 13 -19 6 -4 9 -4 5 0 -8 10 23 47 34 40
5 -3 5 -10 2 -16 -4 -6 -1 -8 7 -6 8 3 13 10 12 16 -2 6 4 9 12 6 8 -3 14 -9
13 -12 -3 -26 3 -32 21 -22 34 18 60 12 67 -15 8 -31 11 -31 34 -3 14 18 21
20 32 10 11 -9 20 -8 39 5 19 14 22 14 12 2 -7 -9 -10 -19 -6 -22 3 -4 2 -7
-3 -7 -6 0 -19 -19 -29 -42 -10 -24 -36 -72 -57 -107 -21 -34 -38 -67 -38 -72
0 -5 -4 -9 -8 -9 -5 0 -19 -19 -32 -42 -13 -24 -36 -61 -52 -82 -15 -21 -28
-44 -28 -49 0 -6 -8 -20 -18 -31 -27 -31 -182 -280 -182 -293 0 -6 -3 -13 -8
-15 -10 -4 -72 -99 -72 -110 0 -4 -9 -17 -19 -27 -10 -10 -38 -52 -62 -92 -23
-41 -53 -87 -66 -102 -12 -16 -23 -34 -23 -41 0 -7 -9 -21 -20 -31 -11 -10
-20 -22 -20 -27 0 -5 -19 -39 -43 -76 -24 -37 -52 -83 -63 -102 -10 -19 -29
-50 -41 -68 -13 -19 -23 -43 -23 -53 0 -11 -6 -19 -14 -19 -8 0 -18 -10 -22
-22 -4 -13 -10 -25 -14 -28 -6 -5 -37 -59 -108 -195 -15 -27 -33 -57 -40 -65
-7 -8 -11 -18 -10 -21 2 -3 -10 -22 -25 -42 -16 -21 -29 -47 -30 -58 -1 -12
-11 -25 -24 -30 -15 -5 -24 -20 -29 -44 -3 -19 -9 -35 -13 -35 -8 0 -13 -9
-52 -95 -13 -27 -29 -56 -36 -63 -7 -7 -19 -34 -26 -60 -8 -26 -23 -63 -34
-82 -11 -19 -18 -41 -16 -47 3 -7 0 -13 -7 -13 -6 0 -8 -4 -5 -10 3 -5 -2 -21
-11 -35 -9 -14 -13 -25 -9 -25 4 0 2 -6 -4 -14 -9 -10 -8 -15 4 -20 25 -9 17
-27 -10 -20 -20 5 -25 2 -25 -12 0 -9 -8 -26 -17 -36 -14 -16 -15 -21 -4 -28
19 -11 6 -64 -14 -56 -9 3 -12 0 -9 -8 3 -7 -3 -21 -13 -31 -31 -31 -107 -181
-98 -195 3 -4 1 -10 -4 -12 -5 -1 -11 -12 -13 -23 -1 -11 -11 -29 -21 -39 -9
-11 -28 -43 -42 -70 -25 -50 -25 -51 -5 -58 22 -8 27 -43 8 -54 -7 -4 -10 -4
-6 1 9 9 -9 45 -23 45 -5 0 -12 -8 -15 -17 -4 -10 -19 -44 -35 -75 -44 -85
-60 -136 -46 -142 8 -3 6 -9 -5 -19 -24 -19 -23 -24 7 -24 20 0 24 3 20 18 -7
20 41 129 56 129 10 0 1 -28 -15 -49 -12 -16 -15 -31 -20 -93 -1 -26 -11 -59
-20 -73 -15 -23 -16 -31 -6 -56 7 -16 13 -29 14 -29 1 0 16 4 34 9 29 9 32 8
32 -12 0 -18 2 -19 10 -7 14 22 23 5 10 -19 -10 -19 -7 -25 13 -22 4 0 7 -6 7
-14 0 -9 7 -18 15 -21 8 -4 15 -12 15 -20 0 -20 8 -17 40 14 15 16 34 29 42
30 49 4 70 12 87 33 10 13 19 28 19 33 0 5 7 13 16 18 9 5 16 14 16 20 0 6 7
19 15 28 8 9 51 77 95 151 44 74 89 145 100 157 11 13 20 31 20 39 0 8 14 33
32 55 46 59 118 170 118 184 0 7 7 14 15 18 8 3 15 12 15 21 0 8 14 28 30 43
17 16 30 39 30 51 0 11 4 21 10 21 11 0 70 84 70 100 0 6 11 23 24 37 13 14
32 43 43 64 10 21 21 39 26 39 4 0 7 7 7 16 0 9 15 37 33 63 18 25 39 60 47
76 8 17 18 32 21 35 13 11 99 179 99 194 0 9 5 16 10 16 13 0 104 188 103 210
-1 9 9 29 23 45 13 15 24 34 24 42 0 7 4 13 10 13 9 0 60 97 60 114 0 4 7 14
15 23 8 8 13 19 10 24 -4 5 -2 9 3 9 12 0 34 49 27 60 -3 5 -2 10 2 12 13 5
104 147 116 179 6 16 15 29 19 29 4 0 8 7 8 16 0 17 41 97 53 102 4 2 7 12 7
23 0 10 5 19 10 19 6 0 10 5 10 11 0 6 6 25 14 42 8 18 17 39 20 47 3 8 15 30
27 49 11 18 18 40 15 47 -3 8 -1 14 4 14 6 0 10 7 10 15 0 8 4 15 9 15 4 0 16
21 26 48 10 26 29 64 42 84 12 21 23 44 23 53 0 8 4 15 9 15 5 0 13 10 17 23
3 12 31 73 62 135 30 63 55 120 55 128 0 8 4 14 8 14 4 0 19 26 34 58 15 31
31 64 36 72 5 8 30 57 55 107 48 95 66 119 82 109 5 -3 8 -26 7 -51 -1 -36 1
-42 12 -34 10 9 13 6 13 -14 0 -14 5 -29 11 -32 11 -7 3 -63 -11 -79 -5 -5 -6
-15 -3 -23 3 -8 0 -18 -7 -23 -6 -4 -13 -19 -13 -34 -1 -14 -5 -26 -9 -26 -5
0 -8 -10 -7 -22 0 -22 1 -22 9 -3 5 11 9 16 9 10 1 -5 6 -3 11 5 7 11 10 12
10 2 0 -8 6 -12 13 -9 7 2 12 22 12 53 0 37 4 49 15 49 8 0 16 -10 18 -23 5
-34 26 -21 33 19 3 19 8 40 12 46 4 7 8 29 9 50 0 21 5 43 10 50 5 7 5 14 -2
18 -5 3 -10 1 -10 -4 0 -6 -4 -11 -8 -11 -4 0 -8 9 -8 20 0 13 7 20 18 20 17
0 22 10 19 38 -1 6 2 12 7 12 5 0 10 10 10 23 0 12 8 58 17 102 9 44 21 100
26 125 6 30 6 46 -1 48 -6 2 -7 9 -3 15 11 18 12 31 18 193 5 138 3 155 -16
198 -11 25 -25 44 -30 40 -5 -3 -17 0 -25 7 -10 9 -21 9 -37 2 -20 -9 -23 -8
-22 12 0 13 3 27 8 31 4 4 7 11 7 16 0 15 -15 8 -32 -16z m-568 -370 c0 -3 -4
-8 -10 -11 -5 -3 -10 -1 -10 4 0 6 5 11 10 11 6 0 10 -2 10 -4z m660 -316 c0
-5 -5 -10 -11 -10 -5 0 -7 5 -4 10 3 6 8 10 11 10 2 0 4 -4 4 -10z m-110 -206
c0 -8 -19 -13 -24 -6 -3 5 1 9 9 9 8 0 15 -2 15 -3z m50 -74 c0 -5 -4 -10 -10
-10 -5 0 -10 5 -10 10 0 6 5 10 10 10 6 0 10 -4 10 -10z m-80 -125 c0 -8 -4
-15 -9 -15 -13 0 -22 16 -14 24 11 11 23 6 23 -9z m-1920 -2184 c0 -6 -4 -13
-10 -16 -5 -3 -10 1 -10 9 0 9 5 16 10 16 6 0 10 -4 10 -9z m-30 -75 c0 -3 -4
-8 -10 -11 -5 -3 -10 -1 -10 4 0 6 5 11 10 11 6 0 10 -2 10 -4z m-80 -170 c0
-16 -18 -31 -27 -22 -8 8 5 36 17 36 5 0 10 -6 10 -14z m-205 -396 c3 -5 2
-10 -4 -10 -5 0 -13 5 -16 10 -3 6 -2 10 4 10 5 0 13 -4 16 -10z"/>
<path d="M7616 8673 c-6 -14 -5 -15 5 -6 7 7 10 15 7 18 -3 3 -9 -2 -12 -12z"/>
<path d="M7142 8188 c-7 -7 -12 -16 -12 -21 0 -5 7 -1 16 8 9 9 14 18 12 20
-2 3 -10 -1 -16 -7z"/>
<path d="M4950 8007 c0 -1 -4 -16 -9 -33 -7 -24 -6 -31 5 -31 9 0 14 12 14 34
0 18 -2 33 -5 33 -3 0 -5 -1 -5 -3z"/>
<path d="M1706 7885 c-3 -8 -1 -15 4 -15 6 0 10 7 10 15 0 8 -2 15 -4 15 -2 0
-6 -7 -10 -15z"/>
<path d="M4900 7881 c0 -12 -4 -21 -8 -21 -10 0 -32 -68 -32 -96 0 -14 2 -16
9 -6 4 8 12 13 17 12 5 -1 10 3 12 9 2 6 -3 8 -12 5 -22 -8 -20 0 5 28 23 26
34 74 18 83 -5 4 -9 -3 -9 -14z"/>
<path d="M1685 7830 c-3 -5 -1 -10 4 -10 6 0 11 5 11 10 0 6 -2 10 -4 10 -3 0
-8 -4 -11 -10z"/>
<path d="M1670 7750 c0 -5 5 -10 10 -10 6 0 10 5 10 10 0 6 -4 10 -10 10 -5 0
-10 -4 -10 -10z"/>
<path d="M7971 7674 c0 -11 3 -14 6 -6 3 7 2 16 -1 19 -3 4 -6 -2 -5 -13z"/>
<path d="M1645 7640 c-3 -5 -1 -10 4 -10 6 0 11 5 11 10 0 6 -2 10 -4 10 -3 0
-8 -4 -11 -10z"/>
<path d="M1727 7637 c-4 -10 -15 -17 -24 -15 -13 2 -19 -5 -21 -24 -2 -16 1
-28 6 -28 17 0 54 48 50 67 -3 17 -4 17 -11 0z"/>
<path d="M7956 7635 c-3 -8 -1 -15 4 -15 6 0 10 7 10 15 0 8 -2 15 -4 15 -2 0
-6 -7 -10 -15z"/>
<path d="M1637 7573 c-4 -3 -7 -11 -7 -17 0 -6 5 -5 12 2 6 6 9 14 7 17 -3 3
-9 2 -12 -2z"/>
<path d="M4746 7561 c-4 -7 -5 -15 -2 -18 9 -9 19 4 14 18 -4 11 -6 11 -12 0z"/>
<path d="M4733 7487 c1 -15 5 -27 10 -27 10 0 9 22 -2 39 -7 10 -9 7 -8 -12z"/>
<path d="M1616 7463 c-10 -10 -7 -25 3 -18 6 3 14 -3 20 -12 11 -21 24 -13 15
10 -6 17 -29 29 -38 20z"/>
<path d="M1577 7233 c-4 -3 -7 -15 -7 -25 0 -17 2 -18 15 -4 8 8 15 19 15 25
0 12 -13 15 -23 4z"/>
<path d="M11487 7009 c-7 -51 9 -99 33 -99 23 0 21 31 -3 55 -13 12 -17 28
-15 47 3 16 1 31 -2 33 -4 3 -10 -14 -13 -36z"/>
<path d="M1550 6944 c0 -8 5 -12 10 -9 6 4 8 11 5 16 -9 14 -15 11 -15 -7z"/>
<path d="M8658 6786 c-13 -20 -29 -36 -36 -36 -7 0 -26 -15 -42 -32 -16 -18
-30 -28 -30 -21 0 6 5 15 10 18 6 3 10 11 10 18 0 7 -6 5 -16 -4 -15 -16 -69
-15 -59 1 2 4 -6 5 -19 3 -13 -3 -27 0 -30 6 -11 18 -68 13 -101 -9 -34 -22
-50 -26 -39 -8 4 7 -8 1 -27 -13 -19 -13 -38 -24 -42 -24 -4 0 -12 -7 -17 -15
-8 -12 -10 -11 -10 7 0 26 19 41 30 23 5 -9 9 -8 13 3 6 15 -11 27 -40 27 -9
0 -13 -6 -10 -15 4 -8 2 -17 -3 -20 -6 -4 -10 -1 -10 4 0 6 -7 11 -15 11 -8 0
-15 -4 -15 -10 0 -5 -6 -10 -14 -10 -15 0 -86 -74 -86 -89 0 -6 -20 -28 -44
-51 -31 -29 -42 -47 -39 -61 3 -10 0 -19 -5 -19 -18 0 -82 -64 -82 -82 0 -26
-11 -48 -25 -48 -16 0 -115 -135 -115 -158 -1 -22 -23 -52 -39 -52 -7 0 -9 -4
-6 -10 3 -5 1 -10 -4 -10 -6 0 -11 -9 -11 -20 0 -13 -5 -18 -15 -14 -10 4 -18
-3 -24 -20 -6 -14 -20 -35 -32 -47 -17 -17 -19 -23 -8 -30 9 -6 15 -3 17 6 4
15 24 20 35 9 11 -11 -25 -55 -37 -46 -14 12 -47 11 -40 0 5 -8 -24 -67 -63
-127 -29 -42 -30 -62 -3 -33 12 12 22 22 24 22 9 0 -8 -60 -18 -60 -6 0 -3 -5
7 -11 10 -6 24 -8 32 -5 21 8 8 -57 -25 -126 -21 -42 -25 -60 -16 -69 8 -9 8
-10 -1 -5 -7 4 -13 2 -13 -4 0 -7 8 -9 19 -5 11 3 22 1 26 -5 3 -5 2 -10 -4
-10 -6 0 -8 -7 -5 -15 8 -19 24 -20 24 -2 0 8 10 22 22 33 12 10 18 13 13 5
-6 -11 -3 -13 16 -7 13 5 33 8 44 9 11 1 27 9 35 19 11 13 19 15 30 8 13 -8
13 -10 1 -10 -11 0 -9 -4 4 -14 12 -8 26 -11 35 -6 8 4 21 5 27 3 7 -3 16 3
19 11 6 15 8 15 19 -1 13 -17 14 -17 20 -1 6 16 9 16 26 -5 12 -15 18 -17 19
-8 0 8 3 11 6 8 4 -4 2 -13 -5 -20 -9 -11 -7 -17 6 -28 15 -12 16 -12 11 3 -4
10 -1 19 8 22 8 3 14 15 14 27 0 26 56 93 66 78 3 -6 1 -16 -5 -22 -16 -16
-14 -50 2 -41 9 6 9 5 -1 -8 -7 -8 -15 -34 -18 -57 -5 -38 -4 -41 15 -38 12 2
28 13 36 24 24 34 101 40 88 6 -5 -11 -1 -14 13 -10 22 7 89 -47 79 -64 -4 -5
-1 -16 5 -24 6 -8 9 -19 5 -25 -4 -6 -3 -10 2 -9 36 6 42 -13 19 -64 -8 -18
-19 -49 -24 -69 -9 -31 -8 -36 6 -31 12 5 14 1 10 -15 -4 -12 -2 -25 3 -28 6
-3 3 -16 -6 -31 -9 -14 -14 -27 -11 -31 3 -3 6 -1 6 4 0 4 7 -1 15 -13 15 -21
12 -45 -8 -71 -6 -7 -11 -25 -12 -41 -2 -25 1 -28 25 -27 16 0 33 9 39 19 11
17 10 17 -12 2 -23 -15 -25 -14 -30 5 -3 11 -2 18 3 15 15 -9 55 33 69 71 18
53 32 69 42 52 11 -17 21 -6 58 68 17 34 38 65 47 68 10 4 14 13 10 22 -3 9 4
25 19 40 14 14 25 30 25 35 0 6 6 17 14 24 7 8 16 32 20 55 3 22 10 38 15 35
12 -7 94 164 106 222 3 17 26 60 50 95 33 47 45 73 45 100 0 26 6 41 21 51 13
10 23 30 26 56 3 22 9 38 14 35 5 -3 9 3 9 13 0 10 9 42 21 72 15 40 17 56 8
61 -8 6 -6 11 6 18 12 6 16 17 12 31 -3 12 0 21 6 21 7 0 5 5 -3 10 -12 8 -12
12 -2 18 8 6 10 24 6 63 -4 30 -6 70 -5 89 1 19 2 47 2 62 0 15 4 30 9 33 5 3
5 19 -1 37 -5 17 -7 34 -4 36 9 9 -16 42 -27 36 -7 -5 -9 1 -4 20 5 22 3 26
-14 26 -12 0 -20 7 -21 18 0 10 -3 12 -6 5 -8 -21 -43 -15 -43 7 0 24 -4 25
-36 4 -13 -9 -27 -14 -31 -10 -3 3 -11 2 -17 -3 -6 -4 -19 -11 -29 -14 -16 -6
-18 -3 -12 24 5 22 4 29 -4 25 -6 -4 -11 -2 -11 3 0 6 5 11 11 11 5 0 7 5 4
10 -4 6 3 27 15 47 28 47 18 55 -12 9z m-498 -136 c0 -5 -8 -10 -17 -10 -15 0
-16 2 -3 10 19 12 20 12 20 0z m-363 -454 c-3 -7 0 -19 6 -25 8 -8 8 -11 0
-11 -11 0 -23 22 -23 41 0 5 5 9 11 9 6 0 9 -6 6 -14z m-87 -155 c0 -13 -29
-35 -37 -28 -7 8 15 37 28 37 5 0 9 -4 9 -9z m-80 -121 c0 -5 -4 -10 -10 -10
-5 0 -10 -4 -10 -10 0 -5 -12 -22 -27 -37 -24 -24 -26 -28 -10 -31 21 -4 22
-16 2 -32 -13 -10 -15 -9 -15 9 0 13 -4 19 -10 16 -6 -4 -2 10 7 29 10 20 23
36 29 36 7 0 14 9 17 20 5 20 27 28 27 10z m65 -20 c-3 -5 -10 -10 -16 -10 -5
0 -9 5 -9 10 0 6 7 10 16 10 8 0 12 -4 9 -10z m-52 -107 c-3 -7 -9 -13 -14
-13 -5 0 -9 -7 -9 -15 0 -9 -6 -12 -15 -9 -20 8 -19 15 7 47 22 27 43 20 31
-10z m977 -173 c0 -5 -4 -10 -10 -10 -5 0 -10 5 -10 10 0 6 5 10 10 10 6 0 10
-4 10 -10z m-1055 -70 c-3 -5 -11 -10 -16 -10 -6 0 -7 5 -4 10 3 6 11 10 16
10 6 0 7 -4 4 -10z m841 -356 c-4 -9 -9 -15 -11 -12 -3 3 -3 13 1 22 4 9 9 15
11 12 3 -3 3 -13 -1 -22z m-22 -60 c5 -14 4 -15 -9 -4 -17 14 -19 20 -6 20 5
0 12 -7 15 -16z"/>
<path d="M1530 6760 c0 -5 5 -10 10 -10 6 0 10 5 10 10 0 6 -4 10 -10 10 -5 0
-10 -4 -10 -10z"/>
<path d="M1560 6679 c0 -5 5 -7 10 -4 6 3 10 8 10 11 0 2 -4 4 -10 4 -5 0 -10
-5 -10 -11z"/>
<path d="M11510 6360 c0 -5 5 -10 10 -10 6 0 10 5 10 10 0 6 -4 10 -10 10 -5
0 -10 -4 -10 -10z"/>
<path d="M1556 6298 c-7 -59 -4 -90 14 -111 14 -16 15 -16 22 0 10 28 10 31
-14 53 -15 14 -18 20 -8 18 11 -2 15 7 16 40 1 28 -3 42 -12 42 -8 0 -15 -17
-18 -42z"/>
<path d="M11551 6284 c0 -11 3 -14 6 -6 3 7 2 16 -1 19 -3 4 -6 -2 -5 -13z"/>
<path d="M1560 6110 c0 -16 4 -30 9 -30 5 0 13 -9 16 -20 10 -31 24 -14 21 24
-4 40 -13 56 -32 56 -9 0 -14 -11 -14 -30z"/>
<path d="M11522 6099 c2 -6 8 -10 13 -10 5 0 11 4 13 10 2 6 -4 11 -13 11 -9
0 -15 -5 -13 -11z"/>
<path d="M11535 6050 c3 -5 8 -10 11 -10 2 0 4 5 4 10 0 6 -5 10 -11 10 -5 0
-7 -4 -4 -10z"/>
<path d="M1586 6015 c-3 -8 -1 -15 4 -15 6 0 10 7 10 15 0 8 -2 15 -4 15 -2 0
-6 -7 -10 -15z"/>
<path d="M11501 5837 c-8 -15 -11 -30 -8 -34 12 -12 29 14 25 38 -3 22 -3 22
-17 -4z"/>
<path d="M7476 5744 c-4 -9 -4 -19 -1 -22 2 -3 7 3 11 12 4 9 4 19 1 22 -2 3
-7 -3 -11 -12z"/>
<path d="M7488 5695 c-23 -31 -24 -53 -2 -34 12 10 17 10 23 0 6 -10 10 -9 15
4 19 52 -6 73 -36 30z"/>
<path d="M7440 5560 c-8 -5 -12 -12 -9 -15 4 -3 12 1 19 10 14 17 11 19 -10 5z"/>
<path d="M7520 5501 c0 -5 -7 -17 -16 -25 -8 -9 -10 -16 -4 -16 6 0 13 7 16
15 4 8 10 12 15 9 5 -3 6 2 3 10 -7 18 -14 21 -14 7z"/>
<path d="M7755 5500 c4 -6 11 -8 16 -5 14 9 11 15 -7 15 -8 0 -12 -5 -9 -10z"/>
<path d="M11446 5484 c-4 -9 -4 -19 -1 -22 2 -3 7 3 11 12 4 9 4 19 1 22 -2 3
-7 -3 -11 -12z"/>
<path d="M8095 5479 c-4 -6 -5 -12 -2 -15 2 -3 7 2 10 11 7 17 1 20 -8 4z"/>
<path d="M11373 5452 c-24 -26 -30 -52 -13 -52 6 0 10 5 10 10 0 6 9 10 20 10
15 0 20 7 20 24 0 35 -11 37 -37 8z"/>
<path d="M7496 5435 c-3 -8 -1 -15 4 -15 6 0 10 7 10 15 0 8 -2 15 -4 15 -2 0
-6 -7 -10 -15z"/>
<path d="M8190 5346 c0 -2 7 -7 16 -10 8 -3 12 -2 9 4 -6 10 -25 14 -25 6z"/>
<path d="M11405 5301 c-3 -5 -1 -12 5 -16 5 -3 10 1 10 9 0 18 -6 21 -15 7z"/>
<path d="M11395 5220 c-3 -5 -1 -10 4 -10 6 0 11 5 11 10 0 6 -2 10 -4 10 -3
0 -8 -4 -11 -10z"/>
<path d="M11377 5173 c-4 -3 -7 -13 -7 -22 1 -13 3 -13 11 2 11 19 8 33 -4 20z"/>
<path d="M7377 5137 c-3 -7 3 -13 14 -14 12 -1 16 3 12 13 -6 18 -19 18 -26 1z"/>
<path d="M7338 5053 c7 -3 16 -2 19 1 4 3 -2 6 -13 5 -11 0 -14 -3 -6 -6z"/>
<path d="M7185 4730 c3 -5 8 -10 11 -10 2 0 4 5 4 10 0 6 -5 10 -11 10 -5 0
-7 -4 -4 -10z"/>
<path d="M10842 3978 c6 -18 28 -21 28 -4 0 9 -7 16 -16 16 -9 0 -14 -5 -12
-12z"/>
<path d="M2355 3710 c3 -5 8 -10 11 -10 2 0 4 5 4 10 0 6 -5 10 -11 10 -5 0
-7 -4 -4 -10z"/>
<path d="M10510 3474 c0 -8 5 -12 10 -9 6 3 10 10 10 16 0 5 -4 9 -10 9 -5 0
-10 -7 -10 -16z"/>
<path d="M10287 3270 c3 -11 9 -17 14 -14 14 8 10 34 -5 34 -9 0 -12 -7 -9
-20z"/>
<path d="M10326 3255 c-3 -8 -1 -15 4 -15 6 0 10 7 10 15 0 8 -2 15 -4 15 -2
0 -6 -7 -10 -15z"/>
<path d="M7870 3229 c0 -5 5 -7 10 -4 6 3 10 8 10 11 0 2 -4 4 -10 4 -5 0 -10
-5 -10 -11z"/>
<path d="M7845 3154 c9 -9 18 -14 21 -11 9 9 -6 27 -22 27 -13 0 -13 -2 1 -16z"/>
<path d="M10026 2894 c-12 -31 3 -34 22 -4 10 16 10 20 -2 20 -8 0 -17 -7 -20
-16z"/>
<path d="M9965 2831 c-3 -5 -1 -12 5 -16 5 -3 10 1 10 9 0 18 -6 21 -15 7z"/>
<path d="M9860 2776 c0 -9 5 -16 10 -16 6 0 10 4 10 9 0 6 -4 13 -10 16 -5 3
-10 -1 -10 -9z"/>
<path d="M9913 2775 c-9 -25 4 -29 17 -6 7 15 7 21 0 21 -6 0 -13 -7 -17 -15z"/>
<path d="M9640 2528 c0 -7 4 -19 9 -26 6 -10 11 -9 22 4 9 12 10 15 2 10 -8
-4 -13 -1 -13 8 0 9 -4 16 -10 16 -5 0 -10 -6 -10 -12z"/>
<path d="M9523 2398 c-19 -25 -24 -38 -14 -38 11 0 35 39 28 46 -2 3 -9 -1
-14 -8z"/>
<path d="M9418 2300 c-50 -52 -31 -55 26 -5 30 27 35 35 20 35 -10 -1 -31 -14
-46 -30z"/>
<path d="M9350 2240 c0 -5 5 -10 11 -10 5 0 7 5 4 10 -3 6 -8 10 -11 10 -2 0
-4 -4 -4 -10z"/>
<path d="M9295 2180 c-3 -5 -2 -10 4 -10 5 0 13 5 16 10 3 6 2 10 -4 10 -5 0
-13 -4 -16 -10z"/>
<path d="M8895 1860 c-3 -5 -2 -10 4 -10 5 0 13 5 16 10 3 6 2 10 -4 10 -5 0
-13 -4 -16 -10z"/>
<path d="M6965 1820 c-3 -5 -1 -10 4 -10 6 0 11 5 11 10 0 6 -2 10 -4 10 -3 0
-8 -4 -11 -10z"/>
<path d="M8740 1805 c-10 -12 -10 -15 4 -15 9 0 16 7 16 15 0 8 -2 15 -4 15
-2 0 -9 -7 -16 -15z"/>
<path d="M7360 1640 c20 -13 33 -13 25 0 -3 6 -14 10 -23 10 -15 0 -15 -2 -2
-10z"/>
<path d="M7790 1574 c0 -8 2 -14 4 -14 2 0 11 -3 20 -6 10 -4 16 -1 16 9 0 8
-9 17 -20 20 -13 3 -20 0 -20 -9z"/>
<path d="M7680 1572 c0 -17 13 -22 27 -10 10 8 17 8 25 0 11 -11 38 -5 38 9 0
5 -20 9 -45 9 -25 0 -45 -4 -45 -8z"/>
<path d="M5445 1011 c-3 -2 -5 -13 -5 -23 0 -10 -11 -36 -25 -58 -14 -22 -25
-43 -25 -48 0 -4 -9 -25 -20 -47 -25 -48 -25 -74 -2 -82 9 -4 24 -16 33 -26
15 -19 16 -19 39 19 14 21 45 62 70 89 41 44 120 149 120 159 0 2 -19 2 -42 1
-30 -2 -46 -9 -56 -23 -12 -19 -15 -19 -31 -5 -11 8 -16 23 -14 34 4 13 0 18
-16 16 -12 -1 -24 -3 -26 -6z"/>
</g>
</svg>
